<?xml version="1.0" encoding="utf-8"?>
<!-- Generator: Adobe Illustrator 22.0.1, SVG Export Plug-In . SVG Version: 6.00 Build 0)  -->
<svg version="1.1" id="Layer_1" xmlns="http://www.w3.org/2000/svg" xmlns:xlink="http://www.w3.org/1999/xlink" x="0px" y="0px"
	 viewBox="0 0 1400 1000" style="enable-background:new 0 0 1400 1000;" xml:space="preserve">
<style type="text/css">
	.st0{fill:#C69C6D;}
	.st1{fill:#8C6239;}
	.st2{opacity:0.3;fill:#8C6239;}
	.st3{fill:#F4EDDF;}
	.st4{fill:#221100;}
	.st5{fill:#231F20;}
	.st6{opacity:0.4;fill:#483320;}
	.st7{opacity:0.5;fill:#939598;}
	.st8{fill:#F3ECC9;}
	.st9{fill:#483320;}
	.st10{fill:#8F4230;}
	.st11{opacity:0.3;fill:#483320;}
	.st12{fill:#D4965E;}
	.st13{fill:#59251A;}
	.st14{fill:#FFCD99;}
	.st15{fill:#E89C62;}
	.st16{fill:#88603C;}
</style>
<rect class="st0" width="1400" height="1000"/>
<g>
	<path class="st1" d="M708,409.5c43.4,0,107.9-6.2,107.9-23.3c0-10.8-24.7-16.6-47-19.6c2.1-3,4.1-6.1,5.9-9.5
		c3.9,4,8.6,6.1,13.9,6.1c2.7,0,5.5-0.5,8.4-1.6c18.8-6.8,40.2-36.4,38.5-61.4c-0.4-6.5-2.3-11-5.8-13.8c-5.5-4.5-13.4-3.6-21-2.6
		c-8.8,1.1-14.3,1.4-16.3-3.1c-0.1-0.2-0.2-0.4-0.4-0.6c0.2-4.1,0.2-8.3,0.2-12.5c0-3.3-3.1-7.1-26.2-10.2
		c-15.6-2.1-36.3-3.2-58.2-3.2c-22,0-42.7,1.1-58.2,3.2c-21.8,2.9-25.8,6.5-26.2,9.6c0,0.2-0.1,0.4-0.1,0.6
		c0,43.9,7.9,77.3,23.6,99.1c-22.4,3-47,8.8-47,19.6C600.2,403.3,664.7,409.5,708,409.5z M790.9,299.6c3.3,1.6,7.8,1.1,12,0.6
		c4.4-0.5,9-1.1,11.4,0.9c1.4,1.1,2.2,3.3,2.4,6.4c1,15.3-12.1,33.8-23.2,37.7c-4.8,1.7-8.6,0.6-11.4-3.5c-0.1-0.1-0.1-0.1-0.2-0.2
		C786.2,329.4,789.2,315.4,790.9,299.6z"/>
	<path class="st1" d="M1187.8,286.3c-5.5-4.6-13.4-3.6-21-2.6c-8.8,1.1-14.3,1.4-16.3-3.1c-0.1-0.2-0.2-0.4-0.4-0.6
		c0.2-4.1,0.2-8.3,0.2-12.5c0-3.3-3.1-7.1-26.2-10.2c-15.6-2.1-36.3-3.2-58.2-3.2c-22,0-42.7,1.1-58.2,3.2
		c-21.8,2.9-25.8,6.4-26.2,9.6c0,0.2-0.1,0.4-0.1,0.6c0,43.9,7.9,77.3,23.6,99.1c-22.4,3-47,8.8-47,19.6
		c0,17.1,64.5,23.3,107.9,23.3c43.4,0,107.9-6.2,107.9-23.3c0-10.8-24.7-16.6-47-19.6c2.1-3,4.1-6.1,5.9-9.5c3.9,4,8.6,6.1,13.9,6.1
		c2.7,0,5.5-0.5,8.4-1.6c18.8-6.8,40.2-36.4,38.5-61.4C1193.2,293.7,1191.3,289.2,1187.8,286.3z M1148.8,299.6
		c3.3,1.6,7.8,1.1,12,0.6c4.4-0.5,9-1.1,11.4,0.9c1.4,1.1,2.2,3.3,2.4,6.4c1,15.3-12.1,33.8-23.2,37.7c-4.8,1.7-8.6,0.6-11.4-3.5
		c-0.1-0.1-0.1-0.1-0.2-0.2C1144,329.4,1147.1,315.4,1148.8,299.6z"/>
	<path class="st2" d="M944.5,456c-0.3,0-1,0-1.3,0.1v5.6c0.4,0,0.8,0,1.1,0c0.4,0,0.9,0,1.5-0.3c0.8-0.3,1.8-1.1,1.8-2.6v0
		C947.6,457,946.4,456,944.5,456z"/>
	<path class="st1" d="M454.9,286.3c-5.5-4.5-13.4-3.6-21-2.6c-8.8,1.1-14.3,1.4-16.3-3.1c-0.1-0.2-0.2-0.4-0.4-0.6
		c0.1-4,0.2-8.2,0.2-12.4c0.2-0.9-0.2-1.8-1.3-2.4c-0.1,0-0.1-0.1-0.2-0.1c-0.1,0-0.1-0.1-0.2-0.1c-51.4-24.9-114.4-25.4-165.7,0
		c-0.1,0-0.1,0-0.1,0.1c-0.1,0-0.1,0.1-0.2,0.1c-1.1,0.5-1.4,1.4-1.3,2.3c0,43.9,7.9,77.2,23.6,99c-22.4,3-47,8.8-47,19.6
		c0,17.1,64.5,23.3,107.9,23.3s107.9-6.2,107.9-23.3c0-10.8-24.7-16.6-47-19.6c2.1-3,4.1-6.1,5.9-9.5c3.9,4,8.6,6.1,13.9,6.1
		c2.7,0,5.5-0.5,8.4-1.6c18.8-6.8,40.2-36.4,38.5-61.4C460.3,293.7,458.4,289.2,454.9,286.3z M415.9,299.6c3.3,1.6,7.8,1.1,12,0.6
		c4.4-0.5,9-1.1,11.4,0.9c1.4,1.1,2.2,3.3,2.4,6.4c1,15.3-12.1,33.8-23.2,37.7c-4.8,1.7-8.6,0.6-11.4-3.5c-0.1-0.1-0.1-0.1-0.2-0.2
		C411.2,329.4,414.2,315.4,415.9,299.6z"/>
	<path class="st1" d="M276.4,462.3c0.3-0.6,0.4-1.3,0.4-2.1v0c0-1.4-0.7-2.6-1.7-3.3c-0.7-0.5-1.6-0.7-2.6-0.7c-0.3,0-0.7,0-1.1,0
		v8.4c0.2,0,0.9,0,1.2,0c1-0.1,1.9-0.4,2.6-0.8C275.6,463.4,276.1,462.9,276.4,462.3z"/>
</g>
<g>
	<path class="st1" d="M708,857.5c43.4,0,107.9-6.2,107.9-23.3c0-10.8-24.7-16.6-47-19.6c2.1-3,4.1-6.1,5.9-9.5
		c3.9,4,8.6,6.1,13.9,6.1c2.7,0,5.5-0.5,8.4-1.6c18.8-6.8,40.2-36.4,38.5-61.4c-0.4-6.5-2.3-11-5.8-13.8c-5.5-4.5-13.4-3.6-21-2.6
		c-8.8,1.1-14.3,1.4-16.3-3.1c-0.1-0.2-0.2-0.4-0.4-0.6c0.2-4.1,0.2-8.3,0.2-12.5c0-3.3-3.1-7.1-26.2-10.2
		c-15.6-2.1-36.3-3.2-58.2-3.2c-22,0-42.7,1.1-58.2,3.2c-21.8,2.9-25.8,6.5-26.2,9.6c0,0.2-0.1,0.4-0.1,0.6
		c0,43.9,7.9,77.3,23.6,99.1c-22.4,3-47,8.8-47,19.6C600.2,851.3,664.7,857.5,708,857.5z M790.9,747.6c3.3,1.6,7.8,1.1,12,0.6
		c4.4-0.5,9-1.1,11.4,0.9c1.4,1.1,2.2,3.3,2.4,6.4c1,15.3-12.1,33.8-23.2,37.7c-4.8,1.7-8.6,0.6-11.4-3.5c-0.1-0.1-0.1-0.1-0.2-0.2
		C786.2,777.4,789.2,763.4,790.9,747.6z"/>
	<path class="st1" d="M1187.8,734.3c-5.5-4.6-13.4-3.6-21-2.6c-8.8,1.1-14.3,1.4-16.3-3.1c-0.1-0.2-0.2-0.4-0.4-0.6
		c0.2-4.1,0.2-8.3,0.2-12.5c0-3.3-3.1-7.1-26.2-10.2c-15.6-2.1-36.3-3.2-58.2-3.2c-22,0-42.7,1.1-58.2,3.2
		c-21.8,2.9-25.8,6.4-26.2,9.6c0,0.2-0.1,0.4-0.1,0.6c0,43.9,7.9,77.3,23.6,99.1c-22.4,3-47,8.8-47,19.6
		c0,17.1,64.5,23.3,107.9,23.3c43.4,0,107.9-6.2,107.9-23.3c0-10.8-24.7-16.6-47-19.6c2.1-3,4.1-6.1,5.9-9.5c3.9,4,8.6,6.1,13.9,6.1
		c2.7,0,5.5-0.5,8.4-1.6c18.8-6.8,40.2-36.4,38.5-61.4C1193.2,741.7,1191.3,737.2,1187.8,734.3z M1148.8,747.6
		c3.3,1.6,7.8,1.1,12,0.6c4.4-0.5,9-1.1,11.4,0.9c1.4,1.1,2.2,3.3,2.4,6.4c1,15.3-12.1,33.8-23.2,37.7c-4.8,1.7-8.6,0.6-11.4-3.5
		c-0.1-0.1-0.1-0.1-0.2-0.2C1144,777.4,1147.1,763.4,1148.8,747.6z"/>
	<path class="st2" d="M944.5,904c-0.3,0-1,0-1.3,0.1v5.6c0.4,0,0.8,0,1.1,0c0.4,0,0.9,0,1.5-0.3c0.8-0.3,1.8-1.1,1.8-2.6v0
		C947.6,905,946.4,904,944.5,904z"/>
	<path class="st1" d="M454.9,734.3c-5.5-4.5-13.4-3.6-21-2.6c-8.8,1.1-14.3,1.4-16.3-3.1c-0.1-0.2-0.2-0.4-0.4-0.6
		c0.1-4,0.2-8.2,0.2-12.4c0.2-0.9-0.2-1.8-1.3-2.4c-0.1,0-0.1-0.1-0.2-0.1c-0.1,0-0.1-0.1-0.2-0.1c-51.4-24.9-114.4-25.4-165.7,0
		c-0.1,0-0.1,0-0.1,0.1c-0.1,0-0.1,0.1-0.2,0.1c-1.1,0.5-1.4,1.4-1.3,2.3c0,43.9,7.9,77.2,23.6,99c-22.4,3-47,8.8-47,19.6
		c0,17.1,64.5,23.3,107.9,23.3s107.9-6.2,107.9-23.3c0-10.8-24.7-16.6-47-19.6c2.1-3,4.1-6.1,5.9-9.5c3.9,4,8.6,6.1,13.9,6.1
		c2.7,0,5.5-0.5,8.4-1.6c18.8-6.8,40.2-36.4,38.5-61.4C460.3,741.7,458.4,737.2,454.9,734.3z M415.9,747.6c3.3,1.6,7.8,1.1,12,0.6
		c4.4-0.5,9-1.1,11.4,0.9c1.4,1.1,2.2,3.3,2.4,6.4c1,15.3-12.1,33.8-23.2,37.7c-4.8,1.7-8.6,0.6-11.4-3.5c-0.1-0.1-0.1-0.1-0.2-0.2
		C411.2,777.4,414.2,763.4,415.9,747.6z"/>
	<path class="st1" d="M276.4,910.3c0.3-0.6,0.4-1.3,0.4-2.1v0c0-1.4-0.7-2.6-1.7-3.3c-0.7-0.5-1.6-0.7-2.6-0.7c-0.3,0-0.7,0-1.1,0
		v8.4c0.2,0,0.9,0,1.2,0c1-0.1,1.9-0.4,2.6-0.8C275.6,911.4,276.1,910.9,276.4,910.3z"/>
</g>
<g>
	<g>
		<g>
			<g>
				<path class="st3" d="M371.9,370.5c9.3,2.3,13.8,5.1,13.8,8.6c0,10.1-42,13.7-70.2,13.7c-28.2,0-70.2-3.7-70.2-13.7
					c0-3.4,4.5-6.3,13.8-8.6c-1.4-1.4-2.9-3-4.4-4.8c-38.2,4.8-48.4,12.5-48.4,15.9c0,2.6,6.4,8.2,30.6,12.9
					c21,4.1,48.9,6.4,78.6,6.4c29.7,0,57.7-2.3,78.6-6.4c24.2-4.7,30.6-10.3,30.6-12.9c0-3.4-10.2-11.1-48.4-15.9
					C374.8,367.5,373.3,369.1,371.9,370.5z"/>
				<path class="st3" d="M399.4,255.5c-4.8-3.8-35.8-8.8-84-8.8s-79.2,5.1-84,8.8c4.8,3.8,35.8,8.8,84,8.8S394.6,259.3,399.4,255.5z
					"/>
				<path class="st3" d="M415.5,284.8c5.5-0.7,11.8-1.4,16.2,2.1c2.7,2.2,4.2,5.7,4.5,10.6c1.3,18.7-14.5,40.7-28.3,45.6
					c-2.1,0.7-4.2,1.1-6.1,1.1c-3.9,0-7.4-1.5-10.3-4.4c-0.8,1.9-1.6,3.8-2.5,5.6c4.8,6.1,11.3,7.8,19.3,4.9
					c17.8-6.4,39-35.9,37.4-59.8c-0.4-5.3-1.7-8.8-4.2-10.9c-4.1-3.4-11.2-2.5-18.2-1.6c-6.6,0.8-13.9,1.7-18.8-1.5
					c-0.1,2-0.3,4-0.4,5.9c0.1,0.2,0.2,0.3,0.3,0.5C405.7,285.8,409.5,285.5,415.5,284.8z M409.8,347c-4.2,3.1-9.7,3.4-14.2,0.8
					c-1.2-0.7-0.1-2.6,1.1-1.9c3.9,2.2,8.4,1.9,12-0.8C409.8,344.3,410.9,346.2,409.8,347z M441.6,286.9c1.1,2.9,1.6,5.9,1.7,9
					c0,1.4-2.2,1.4-2.2,0c0-2.9-0.6-5.7-1.6-8.4C439,286.1,441.1,285.6,441.6,286.9z M424.2,279.7c4.9-0.9,9.7-0.3,14.2,2
					c1.2,0.6,0.1,2.5-1.1,1.9c-3.9-2-8.2-2.6-12.5-1.8C423.4,282.1,422.8,280,424.2,279.7z"/>
				<path class="st3" d="M315.4,389.6c44,0,67-6.8,67-10.5c0-1-2.9-3.5-13.4-5.9c-8.5,7.4-15.2,9.2-15.6,9.3c-0.6,0.1-14,3-38,3
					s-37.3-2.8-37.9-3c-0.4-0.1-7.2-1.9-15.7-9.3c-10.5,2.4-13.4,4.8-13.4,5.9C248.5,382.8,271.5,389.6,315.4,389.6z"/>
				<path class="st4" d="M317.8,301.6c-12.9-2-25.2-6-37.7-9.7c-13-3.8-26.3-4.6-39.7-4.7c2.6,23.3,11.1,64.1,38.4,82.3
					c2.3,0.5,17.6,3.5,36.7,3.7c19-0.2,34.4-3.2,36.7-3.7c26.3-17.6,35.1-56.1,38.1-79.6C366.7,298.1,343,305.5,317.8,301.6z"/>
				<path class="st3" d="M377.3,266.3c-16.6,2.2-38.5,3.4-61.9,3.4c-23.4,0-45.4-1.2-61.9-3.4c-11.5-1.5-18.4-3.2-22.4-5
					c1.7,103.2,47.2,115.8,47.6,115.9c0,0,13.3,2.8,36.7,2.8c23.4,0,36.6-2.8,36.7-2.8c0,0,11.9-3.3,23.6-19.6
					c10.6-14.8,23.1-43.3,24-96.2C395.7,263.1,388.9,264.8,377.3,266.3z M353.7,372.3C353.7,372.3,353.7,372.3,353.7,372.3
					C353.7,372.4,353.7,372.4,353.7,372.3C353.7,372.4,353.6,372.4,353.7,372.3c-0.2,0.1-0.3,0.2-0.4,0.2c0,0-0.1,0-0.1,0
					c0,0,0,0-0.1,0c-0.2,0-16.7,3.6-37.7,3.8c-21-0.2-37.5-3.8-37.7-3.8c0,0,0,0-0.1,0c0,0-0.1,0-0.1,0c-0.1,0-0.2-0.1-0.3-0.2
					c0,0,0,0,0,0c0,0,0,0,0,0c0,0,0,0,0,0c-40.7-27-41.2-99.2-41.2-102.2c0-0.9,0.7-1.6,1.6-1.6c0.9,0,1.6,0.7,1.6,1.6
					c0,0.2,0,5.6,0.8,13.8c12.1,0.1,24.2,0.6,35.9,3.5c12.4,3.1,24.3,7.5,36.8,10c27.3,5.5,52.3-2.1,77.8-11.1
					c1-9.6,1.1-15.9,1.1-16.1c0-0.9,0.7-1.6,1.6-1.6c0.9,0,1.6,0.7,1.6,1.6C394.9,273.2,394.5,345.3,353.7,372.3z"/>
				<path class="st5" d="M401.3,357.2c2.8,0,5.8-0.6,9-1.7c20-7.2,42.8-38.7,40.9-65.3c-0.5-6.9-2.5-11.7-6.2-14.7
					c-5.9-4.8-14.2-3.8-22.3-2.8c-9.3,1.2-15.2,1.5-17.3-3.3c-0.1-0.2-0.2-0.4-0.4-0.6c0.2-4.3,0.2-8.8,0.2-13.3
					c0-3.5-3.3-7.6-27.9-10.8c-16.6-2.2-38.5-3.4-61.9-3.4c-23.4,0-45.4,1.2-61.9,3.4c-23.2,3.1-27.4,6.9-27.8,10.2
					c0,0.2-0.1,0.4-0.1,0.6c0,46.7,8.4,82.1,25.1,105.3c-23.8,3.2-49.9,9.3-49.9,20.9c0,18.1,68.6,24.7,114.7,24.7
					c46.1,0,114.7-6.6,114.7-24.7c0-11.5-26.2-17.7-49.9-20.9c2.3-3.1,4.4-6.5,6.3-10.1C390.5,355,395.6,357.2,401.3,357.2z
					 M404.6,276.6c4.9,3.2,12.2,2.3,18.8,1.5c6.9-0.9,14.1-1.8,18.2,1.6c2.5,2,3.8,5.6,4.2,10.9c1.7,24-19.5,53.4-37.4,59.8
					c-8,2.9-14.4,1.2-19.3-4.9c0.9-1.8,1.7-3.7,2.5-5.6c2.9,2.9,6.4,4.4,10.3,4.4c1.9,0,4-0.4,6.1-1.1c13.8-4.9,29.5-26.9,28.3-45.6
					c-0.3-4.9-1.8-8.4-4.5-10.6c-4.3-3.6-10.6-2.8-16.2-2.1c-6.1,0.7-9.9,1-11.1-1.7c-0.1-0.2-0.2-0.4-0.3-0.5
					C404.3,280.6,404.5,278.6,404.6,276.6z M416.2,290.2c4.7-0.6,9.5-1.2,12.1,0.9c1.5,1.2,2.3,3.5,2.6,6.8
					c1.1,16.2-12.9,35.9-24.7,40.1c-5.1,1.8-9.1,0.6-12.1-3.7c-0.1-0.1-0.1-0.2-0.2-0.2c4.6-12.8,7.9-27.7,9.7-44.5
					C407,291.3,411.8,290.7,416.2,290.2z M315.4,246.7c48.2,0,79.2,5.1,84,8.8c-4.8,3.8-35.8,8.8-84,8.8s-79.2-5.1-84-8.8
					C236.2,251.7,267.3,246.7,315.4,246.7z M424.6,381.7c0,2.6-6.4,8.2-30.6,12.9c-21,4.1-48.9,6.4-78.6,6.4
					c-29.7,0-57.7-2.3-78.6-6.4c-24.2-4.7-30.6-10.3-30.6-12.9c0-3.4,10.2-11.1,48.4-15.9c1.5,1.8,3,3.4,4.4,4.8
					c-9.2,2.3-13.8,5.1-13.8,8.6c0,10.1,42,13.7,70.2,13.7c28.2,0,70.2-3.7,70.2-13.7c0-3.4-4.5-6.3-13.8-8.6c1.4-1.4,2.9-3,4.4-4.8
					C414.5,370.6,424.6,378.2,424.6,381.7z M261.8,373.2c8.5,7.4,15.2,9.2,15.7,9.3c0.6,0.1,13.9,3,37.9,3s37.3-2.8,38-3
					c0.4-0.1,7.1-1.9,15.6-9.3c10.5,2.4,13.4,4.9,13.4,5.9c0,3.7-23,10.5-67,10.5s-67-6.8-67-10.5
					C248.5,378.1,251.4,375.6,261.8,373.2z M375.8,357.6c-11.7,16.4-23.6,19.6-23.6,19.6c-0.1,0-13.4,2.8-36.7,2.8
					c-23.4,0-36.6-2.8-36.7-2.8c-0.5-0.1-46-12.7-47.6-115.9c4,1.7,10.9,3.5,22.4,5c16.6,2.2,38.5,3.4,61.9,3.4
					c23.4,0,45.4-1.2,61.9-3.4c11.5-1.5,18.4-3.2,22.4-5C398.8,314.3,386.3,342.8,375.8,357.6z"/>
				<path class="st5" d="M393.3,268.5c-0.9,0-1.6,0.7-1.6,1.6c0,0.2,0,6.6-1.1,16.1c-25.5,9-50.5,16.6-77.8,11.1
					c-12.5-2.5-24.4-6.9-36.8-10c-11.8-2.9-23.9-3.4-35.9-3.5c-0.8-8.2-0.8-13.6-0.8-13.8c0-0.9-0.7-1.6-1.6-1.6
					c-0.9,0-1.6,0.7-1.6,1.6c0,3.1,0.5,75.2,41.2,102.2c0,0,0,0,0,0c0,0,0,0,0,0c0,0,0,0,0,0c0.1,0.1,0.2,0.1,0.3,0.2
					c0,0,0.1,0,0.1,0c0,0,0,0,0.1,0c0.2,0,16.7,3.6,37.7,3.8c20.9-0.2,37.5-3.8,37.7-3.8c0,0,0,0,0.1,0c0,0,0.1,0,0.1,0
					c0.1,0,0.2-0.1,0.3-0.2c0,0,0,0,0,0c0,0,0,0,0,0c0,0,0,0,0,0c40.7-27,41.2-99.2,41.2-102.2C394.9,269.2,394.2,268.5,393.3,268.5
					z M352.1,369.5c-2.3,0.5-17.6,3.5-36.7,3.7c-19.1-0.2-34.4-3.2-36.7-3.7c-27.3-18.2-35.7-59.1-38.4-82.3
					c13.4,0.1,26.7,0.9,39.7,4.7c12.5,3.7,24.8,7.7,37.7,9.7c25.2,3.9,48.9-3.5,72.4-11.7C387.2,313.4,378.4,351.9,352.1,369.5z"/>
				<path class="st5" d="M408.7,345.1c-3.6,2.7-8.1,3-12,0.8c-1.2-0.7-2.3,1.2-1.1,1.9c4.5,2.6,10,2.3,14.2-0.8
					C410.9,346.2,409.8,344.3,408.7,345.1z"/>
				<path class="st5" d="M424.8,281.8c4.3-0.8,8.6-0.2,12.5,1.8c1.2,0.6,2.3-1.2,1.1-1.9c-4.5-2.3-9.3-3-14.2-2
					C422.8,280,423.4,282.1,424.8,281.8z"/>
				<path class="st5" d="M441,295.9c0,1.4,2.2,1.4,2.2,0c0-3.1-0.6-6.1-1.7-9c-0.5-1.3-2.6-0.7-2.1,0.6
					C440.5,290.2,441,293,441,295.9z"/>
				<path class="st5" d="M294.1,224.3c14.8-16.9,32.9-40.1,25.9-63.2c3.9,5.8,6.6,12.2,6.7,19.7c0.1,13.9-7.1,26.3-14,37.9
					c-1.1,1.8,1.8,3.5,2.8,1.6c7.4-12.6,15.3-26.3,14.3-41.5c-0.8-13.4-9.3-23.5-18.1-32.8c-3.2-4.3-6.4-8.5-8.1-13.7
					c-2.3-7.3-1.3-15.4,1.5-22.4c5.7-14.7,19-24.7,31.1-33.9c1.7-1.2,0-4.1-1.6-2.8C316,87.5,290,110.1,302,136.8
					c1.6,3.6,3.9,6.7,6.2,9.8c0.1,0.3,0.2,0.5,0.4,0.8c0.3,0.3,0.6,0.6,0.8,0.9c1.6,2.1,3.1,4.2,4.4,6.5c4.3,7.6,5.1,16.5,3.6,25
					c-3.1,16.7-14.7,29.9-25.6,42.3C290.4,223.5,292.7,225.9,294.1,224.3z"/>
				<path class="st5" d="M299.5,96.3c0.2,0.1,0.3,0.1,0.5,0.1c0.4,0,0.8-0.2,1-0.6c0-0.1,4.7-8.7,14-15c0.5-0.3,0.6-1,0.3-1.5
					c-0.3-0.5-1-0.6-1.5-0.3c-9.7,6.6-14.5,15.4-14.7,15.8C298.7,95.4,298.9,96.1,299.5,96.3z"/>
				<path class="st5" d="M335.3,198c5.1-11.8,4.7-24.8-1.4-36.1c-0.7-1.2-2.5-0.1-1.9,1.1c5.7,10.6,6.2,22.9,1.4,33.9
					C332.9,198.2,334.8,199.3,335.3,198z"/>
			</g>
			<g>
				<path d="M197.9,471.9c0,3.1-1.9,5.6-4,6.8c-2.1,1.3-4.7,1.8-9.9,1.8c-1.2,0-2,0-3.3-0.1c-0.4,0-1.4-0.1-2.4-0.2v-0.1v-13.5v-3.9
					v-12.6v-0.1c0.7-0.1,1.6-0.2,2.7-0.2c1.1-0.1,2.9-0.1,4.3-0.1c1.8,0,4,0.3,5.6,0.7c1.8,0.5,5.7,2.3,5.7,7.5
					c0,2.7-1.6,5.5-4.5,6.3v0.1C195.1,465.2,197.9,467.9,197.9,471.9L197.9,471.9z M189.6,458.8c0-1.9-1.3-3-3.3-3
					c-0.4,0-1,0-1.4,0.1v5.9c0.4,0,0.8,0,1.1,0c0.5,0,0.9,0,1.6-0.3C188.6,461.3,189.6,460.4,189.6,458.8L189.6,458.8z M190.5,470.9
					c0-1.6-1.1-2.7-2.3-3.1c-0.5-0.2-1.3-0.3-1.9-0.3c-0.3,0-1,0-1.3,0v6.7c0,0,0,0.1,0,0.1c0.4,0,0.9,0,1.4,0
					c0.7,0,1.5-0.1,2.2-0.5C189.5,473.5,190.5,472.6,190.5,470.9L190.5,470.9z"/>
				<path d="M202.3,462.9v-12.7V450h3.8h3.5v0.2v12.7v3.9v7.4c0,0.2,0,0.2,0.2,0.2h5.8h1.7h1.2h0.2v6.1h-7.4h-8.8v-0.2v-13.5V462.9z
					"/>
				<path d="M229.2,476.1c-0.9,2.3-1.6,4-1.8,4.3v0.1h-3.6H220v-0.1c0.1-0.3,0.9-2,6.1-13.6l7.7-17.3h1l7.6,17.3
					c5.1,11.6,5.8,13.3,5.9,13.6v0.1h-3.8h-4.4v-0.1c-0.1-0.3-0.8-2-1.7-4.3H229.2z M236.4,470.3L236.4,470.3
					c-1.6-4-2.2-5.8-2.4-6.8h0c-0.3,1-0.9,2.8-2.5,6.8v0.1H236.4z"/>
				<path d="M248.1,465.1c0-8.6,6.3-15.5,18.1-15.5c1,0,1.7,0,2.5,0.1c0.8,0.1,1.7,0.2,2.3,0.4c-0.1,2-0.1,3.6-0.2,6.5h-0.1
					c-0.5-0.1-0.9-0.2-1.6-0.3c-0.8-0.1-1.8-0.2-2.8-0.2c-6.4,0-10.4,3.6-10.4,9.1c0,5.6,3.7,9.3,9.7,9.3c1.3,0,2.3,0,3.4-0.2
					c0.6-0.1,1.1-0.2,1.8-0.4h0.1c0,1.3,0.2,5,0.2,6.3c-0.5,0.2-1.7,0.4-2.5,0.5c-1.5,0.2-2.4,0.2-3.7,0.2
					C255.3,480.9,248.1,474.8,248.1,465.1L248.1,465.1z"/>
				<path d="M275.7,462.9v-12.7V450h3.6h3.6v0.1v9.7v2.2h0.1l4.7-6.3c2.8-3.7,3.9-5.2,4.2-5.6V450h4.2h4.4v0.1c-0.3,0.3-1.6,2-5,6.1
					l-6.7,7.9l8,9.5c4.2,5,5.4,6.4,5.7,6.8v0.1h-4.6h-4.6v0c-0.2-0.3-1.7-2.1-5-6.4l-5.4-6.8H283v3.2v9.9v0.1h-3.6h-3.6v-0.1v-13.6
					V462.9z"/>
				<path d="M313.5,465.1c0-8.6,6.3-15.5,18.1-15.5c1,0,1.7,0,2.5,0.1c0.8,0.1,1.7,0.2,2.3,0.4c-0.1,2-0.1,3.6-0.2,6.5h-0.1
					c-0.5-0.1-0.9-0.2-1.6-0.3c-0.8-0.1-1.8-0.2-2.8-0.2c-6.4,0-10.4,3.6-10.4,9.1c0,5.6,3.7,9.3,9.7,9.3c1.3,0,2.3,0,3.4-0.2
					c0.6-0.1,1.1-0.2,1.8-0.4h0.1c0,1.3,0.2,5,0.2,6.3c-0.5,0.2-1.7,0.4-2.5,0.5c-1.5,0.2-2.4,0.2-3.7,0.2
					C320.7,480.9,313.5,474.8,313.5,465.1L313.5,465.1z"/>
				<path d="M370.1,465.1c0,9-6.8,15.9-16,15.9c-9.1,0-16-6.9-16-15.7c0-8.8,7-15.7,16.3-15.7C363.5,449.6,370.1,456.3,370.1,465.1
					L370.1,465.1z M362.7,465.2c0-5-3.6-9-8.5-9c-5.1,0-8.8,3.8-8.8,9c0,5.1,3.6,9,8.8,9C359.4,474.3,362.7,470.3,362.7,465.2
					L362.7,465.2z"/>
				<path d="M381.3,463h4.5h3.3h0.2v2.9v3.2H389h-3.2h-4.5v1.1v10.2v0.1h-3.6h-3.7v-0.2v-13.5v-3.9v-12.6V450h8.4h7.8v6.1h-0.2h-4.7
					h-4.1V463z"/>
				<path d="M402.2,463h4.5h3.3h0.2v2.9v3.2h-0.2h-3.2h-4.5v1.1v10.2v0.1h-3.6h-3.7v-0.2v-13.5v-3.9v-12.6V450h8.4h7.8v6.1h-0.2
					h-4.7h-4.1V463z"/>
				<path d="M415.8,462.9V450V450h8.5h7.7v6.1h-0.1h-4.7H423v6h4.5h3.3h0.1v2.9v3.1h-0.1h-3.2H423v5.5v0.8h6.2h3h0.1v6.1h-7.4h-9
					v-0.1v-13.6V462.9z"/>
				<path d="M437,462.9V450V450h8.5h7.7v6.1h-0.1h-4.7h-4.2v6h4.5h3.3h0.1v2.9v3.1h-0.1h-3.2h-4.6v5.5v0.8h6.2h3h0.1v6.1H446h-9
					v-0.1v-13.6V462.9z"/>
			</g>
			<path class="st6" d="M352.1,369.5c26.3-17.6,35.1-56.1,38.1-79.6c-26,76.9-111.4,79.6-111.4,79.6c2.3,0.5,17.6,3.5,36.7,3.7
				C334.5,372.9,349.8,370,352.1,369.5z"/>
			<path class="st7" d="M410.2,378.2c-8.9-5-45.3-3.3-45.3-3.3l-3.7,4.1c-4.5,2.7-7.5,3.5-7.8,3.6c-0.6,0.1-14,3-38,3
				s-37.3-2.8-37.9-3c-0.4-0.1-7.2-1.9-15.7-9.3c-10.5,2.4-13.4,4.8-13.4,5.9c0,3.7,23,10.5,67,10.5c15.1,0,27.8-0.8,37.8-2
				C353.3,387.6,421.9,384.8,410.2,378.2z"/>
			<path class="st7" d="M242.6,259.1c13.8,2.8,39.1,5.2,72.8,5.2c33.7,0,59-2.5,72.8-5.2c-9.2-3.1-35.2-6.5-72.8-6.5
				S251.8,255.9,242.6,259.1z"/>
			<path class="st7" d="M402.1,276.4c0.2-0.6,0.4-1.2,0.7-1.7c0.6-0.8,1.7-1.2,2.7-1.3c2.1-0.2,4.2,0.5,5.7,1.9
				c0.4,3.6,0.8,7.3,1.2,10.9c0,0.4,0.1,0.9-0.1,1.2c-0.2,0.3-0.6,0.5-0.9,0.6c-2.9,0.9-6.2-0.5-8-3
				C401.7,282.7,401.3,279.4,402.1,276.4z"/>
			<path class="st7" d="M427.5,331.6c4.6-4.4,9.1-8.8,13.7-13.3c-2.4,10.5-8.7,20.1-17.4,26.5c-2.5,1.9-5.3,3.5-8,5.1
				c-3,1.8-6,3.5-9.4,4.4c-3.6,0.9-7.4,0.6-11-0.4c-2.7-0.8-5.3-2.2-7.1-4.3c-1.8-2.1-2.8-5.1-2.1-7.8c0.3-1.2,1-2.3,2-2.9
				c1.4-0.8,3.1-0.6,4.7-0.3c5.9,1.3,11.7,4.2,17.7,3.5C417.3,341.2,422.6,336.3,427.5,331.6z"/>
		</g>
	</g>
	<g>
		<g>
			<g>
				<path class="st8" d="M773.5,256.3c-51.3-23.8-113.8-24.2-165,0c7.9,3.6,37.8,8,82.5,8C735.7,264.3,765.6,260,773.5,256.3z"/>
				<path class="st3" d="M691.1,389.6c44,0,67-6.8,67-10.5c0-1-2.9-3.5-13.4-5.9c-8.5,7.4-15.2,9.2-15.6,9.3c-0.6,0.1-14,3-38,3
					s-37.3-2.8-37.9-3c-0.4-0.1-7.2-1.9-15.7-9.3c-10.5,2.4-13.4,4.8-13.4,5.9C624.1,382.8,647.1,389.6,691.1,389.6z"/>
				<path class="st9" d="M721,318.6c-11.6,4.4-23.6,7.7-36,9.2c-22.3,2.7-45.3-1.1-64.2-13.5c5.3,20.3,15.1,42.6,33.5,55.2
					c2.3,0.5,17.6,3.5,36.7,3.7c18.8-0.2,34-3.1,36.6-3.6c18.3-14.9,28.2-38.4,33.5-58.7C747.1,307.3,733.9,313.7,721,318.6z"/>
				<path class="st3" d="M791.2,284.8c5.5-0.7,11.8-1.4,16.2,2.1c2.7,2.2,4.2,5.7,4.5,10.6c1.3,18.7-14.5,40.7-28.3,45.6
					c-2.1,0.7-4.2,1.1-6.1,1.1c-3.9,0-7.4-1.5-10.3-4.4c-0.8,1.9-1.6,3.8-2.5,5.6c4.8,6.1,11.3,7.8,19.3,4.9
					c17.8-6.4,39-35.9,37.4-59.8c-0.4-5.3-1.7-8.8-4.2-10.9c-4.1-3.4-11.2-2.5-18.2-1.6c-6.6,0.8-13.9,1.7-18.8-1.5
					c-0.1,2-0.3,4-0.4,5.9c0.1,0.2,0.2,0.3,0.3,0.5C781.3,285.8,785.1,285.5,791.2,284.8z"/>
				<path class="st3" d="M747.5,370.5c9.3,2.3,13.8,5.1,13.8,8.6c0,10.1-42,13.7-70.2,13.7c-28.2,0-70.2-3.7-70.2-13.7
					c0-3.4,4.5-6.3,13.8-8.6c-1.4-1.4-2.9-3-4.4-4.8c-38.2,4.8-48.4,12.5-48.4,15.9c0,2.6,6.4,8.2,30.6,12.9
					c21,4.1,48.9,6.4,78.6,6.4s57.7-2.3,78.6-6.4c24.2-4.7,30.6-10.3,30.6-12.9c0-3.4-10.2-11.1-48.4-15.9
					C750.4,367.5,748.9,369.1,747.5,370.5z"/>
				<path class="st3" d="M753,266.3c-16.6,2.2-38.5,3.4-61.9,3.4s-45.4-1.2-61.9-3.4c-11.5-1.5-18.4-3.2-22.4-5
					c1.7,103.2,47.2,115.8,47.6,115.9c0,0,13.3,2.8,36.7,2.8c23.4,0,36.6-2.8,36.7-2.8c0,0,11.9-3.3,23.6-19.6
					c10.6-14.8,23.1-43.3,24-96.2C771.3,263.1,764.5,264.8,753,266.3z M768.5,290.9c-3.5,23-13.1,60.4-39.1,81.3c0,0,0,0,0,0
					c-0.1,0.1-0.3,0.2-0.4,0.2c0,0-0.1,0-0.1,0c0,0-0.1,0-0.1,0c-0.2,0-16.7,3.6-37.7,3.8c-21-0.2-37.5-3.8-37.7-3.8c0,0,0,0-0.1,0
					c0,0-0.1,0-0.1,0c-0.1,0-0.2-0.1-0.4-0.2c0,0,0,0,0,0c0,0,0,0,0,0c0,0,0,0,0,0C612,344.8,611.6,274,611.6,271
					c0-0.9,0.7-1.6,1.6-1.6c0.9,0,1.6,0.7,1.6,1.6c0,0.2,0,3.7,0.5,9.4c23.5,13.8,51.3,7.8,76.8,4.5c24.6-3.3,49.4-2.3,73.6,3
					c1.4-10,1.6-16.7,1.6-16.9c0-0.9,0.7-1.6,1.6-1.6c0,0,0,0,0,0c0.9,0,1.6,0.8,1.6,1.7c0,0.2-0.2,7.4-1.7,18.1
					C769.1,289.7,768.9,290.4,768.5,290.9z"/>
				<path class="st8" d="M683.3,289.4c-22.6,3.3-46.8,6.2-67.6-5c0.7,6.8,1.9,15.7,4.1,25.2c0,0,0.1,0,0.1,0.1
					c21.1,15.2,47.7,18.4,72.8,13.7c12.7-2.4,24.5-6.9,36.5-11.5c10.6-4.1,21.5-7.1,32.8-4.2c1.4-6,2.5-11.6,3.3-16.5
					C737.9,285.1,710.9,285.4,683.3,289.4z"/>
				<path class="st5" d="M776.9,357.2c2.8,0,5.8-0.6,9-1.7c20-7.2,42.8-38.7,40.9-65.3c-0.5-6.9-2.5-11.7-6.2-14.7
					c-5.9-4.8-14.2-3.8-22.3-2.8c-9.3,1.2-15.2,1.5-17.3-3.3c-0.1-0.2-0.2-0.4-0.4-0.6c0.2-4.3,0.2-8.7,0.2-13.2
					c0.2-1-0.2-1.9-1.3-2.5c-0.1,0-0.1-0.1-0.2-0.1c-0.1,0-0.1-0.1-0.2-0.1c-54.6-26.5-121.6-26.9-176.1,0c-0.1,0-0.1,0.1-0.2,0.1
					c-0.1,0-0.1,0.1-0.2,0.1c-1.1,0.6-1.5,1.5-1.3,2.5c0,46.6,8.4,82,25.1,105.2c-23.8,3.2-49.9,9.3-49.9,20.9
					c0,18.1,68.6,24.7,114.7,24.7c46.1,0,114.7-6.6,114.7-24.7c0-11.5-26.2-17.7-49.9-20.9c2.3-3.1,4.4-6.5,6.3-10.1
					C766.2,355,771.2,357.2,776.9,357.2z M780.2,276.6c4.9,3.2,12.2,2.3,18.8,1.5c6.9-0.9,14.1-1.8,18.2,1.6c2.5,2,3.8,5.6,4.2,10.9
					c1.7,24-19.5,53.4-37.4,59.8c-8,2.9-14.4,1.2-19.3-4.9c0.9-1.8,1.7-3.7,2.5-5.6c2.9,2.9,6.4,4.4,10.3,4.4c1.9,0,4-0.4,6.1-1.1
					c13.8-4.9,29.5-26.9,28.3-45.6c-0.3-4.9-1.8-8.4-4.5-10.6c-4.4-3.6-10.6-2.8-16.2-2.1c-6.1,0.7-9.9,1-11.1-1.7
					c-0.1-0.2-0.2-0.4-0.3-0.5C779.9,280.6,780.1,278.6,780.2,276.6z M779.1,289.5c3.5,1.8,8.3,1.2,12.7,0.6
					c4.7-0.6,9.5-1.2,12.1,0.9c1.5,1.2,2.3,3.5,2.6,6.8c1.1,16.2-12.9,35.9-24.7,40.1c-5.1,1.8-9.1,0.6-12.1-3.7
					c-0.1-0.1-0.1-0.2-0.2-0.2C774.1,321.2,777.3,306.4,779.1,289.5z M773.5,256.3c-8,3.6-37.8,8-82.5,8c-44.7,0-74.6-4.4-82.5-8
					C659.8,232.1,722.2,232.5,773.5,256.3z M800.3,381.7c0,2.6-6.4,8.2-30.6,12.9c-21,4.1-48.9,6.4-78.6,6.4s-57.7-2.3-78.6-6.4
					c-24.2-4.7-30.6-10.3-30.6-12.9c0-3.4,10.2-11.1,48.4-15.9c1.5,1.8,3,3.4,4.4,4.8c-9.2,2.3-13.8,5.1-13.8,8.6
					c0,10.1,42,13.7,70.2,13.7c28.2,0,70.2-3.7,70.2-13.7c0-3.4-4.5-6.3-13.8-8.6c1.4-1.4,2.9-3,4.4-4.8
					C790.1,370.6,800.3,378.2,800.3,381.7z M637.5,373.2c8.5,7.4,15.2,9.2,15.7,9.3c0.6,0.1,13.9,3,37.9,3s37.3-2.8,38-3
					c0.4-0.1,7.1-1.9,15.6-9.3c10.5,2.4,13.4,4.9,13.4,5.9c0,3.7-23,10.5-67,10.5c-44,0-67-6.8-67-10.5
					C624.1,378.1,627,375.6,637.5,373.2z M751.4,357.6c-11.7,16.4-23.6,19.6-23.6,19.6c-0.1,0-13.4,2.8-36.7,2.8
					c-23.4,0-36.6-2.8-36.7-2.8c-0.5-0.1-46-12.7-47.6-115.9c4,1.7,10.9,3.5,22.4,5c16.6,2.2,38.5,3.4,61.9,3.4s45.4-1.2,61.9-3.4
					c11.5-1.5,18.4-3.2,22.4-5C774.5,314.3,762,342.8,751.4,357.6z"/>
				<path class="st5" d="M770.5,271.1c0-0.9-0.7-1.6-1.6-1.7c0,0,0,0,0,0c-0.9,0-1.6,0.7-1.6,1.6c0,0.2-0.2,6.9-1.6,16.9
					c-24.3-5.3-49-6.2-73.6-3c-25.5,3.4-53.3,9.3-76.8-4.5c-0.4-5.7-0.5-9.2-0.5-9.4c0-0.9-0.7-1.6-1.6-1.6c-0.9,0-1.6,0.7-1.6,1.6
					c0,3,0.5,73.8,41.2,101.3c0,0,0,0,0,0c0,0,0,0,0,0c0,0,0,0,0,0c0.1,0.1,0.2,0.1,0.4,0.2c0,0,0.1,0,0.1,0c0,0,0,0,0.1,0
					c0.2,0,16.7,3.6,37.7,3.8c20.9-0.2,37.5-3.8,37.7-3.8c0,0,0.1,0,0.1,0c0,0,0.1,0,0.1,0c0.2-0.1,0.3-0.1,0.4-0.2c0,0,0,0,0,0
					c26-20.9,35.6-58.3,39.1-81.3c0.4-0.5,0.5-1.2,0.3-1.8C770.3,278.5,770.5,271.3,770.5,271.1z M727.7,369.5
					c-2.5,0.5-17.7,3.4-36.6,3.6c-19-0.2-34.4-3.2-36.7-3.7c-18.4-12.5-28.2-34.9-33.5-55.2c18.8,12.4,41.9,16.2,64.2,13.5
					c12.3-1.5,24.4-4.8,36-9.2c12.9-4.9,26-11.4,40.1-7.8C755.8,331.1,746,354.6,727.7,369.5z M761.9,307.7
					c-11.3-2.8-22.2,0.1-32.8,4.2c-12,4.6-23.8,9.1-36.5,11.5c-25.1,4.7-51.8,1.5-72.8-13.7c0,0-0.1,0-0.1-0.1
					c-2.2-9.6-3.4-18.4-4.1-25.2c20.8,11.2,45,8.3,67.6,5c27.6-4,54.6-4.3,81.9,1.7C764.4,296.1,763.4,301.7,761.9,307.7z"/>
				<path class="st5" d="M669.8,224.3c14.8-16.9,32.9-40.1,25.9-63.2c3.9,5.8,6.6,12.2,6.7,19.7c0.1,13.9-7.1,26.3-14,37.9
					c-1.1,1.8,1.8,3.5,2.8,1.6c7.4-12.6,15.3-26.3,14.3-41.5c-0.8-13.4-9.3-23.5-18.1-32.8c-3.2-4.3-6.4-8.5-8.1-13.7
					c-2.3-7.3-1.3-15.4,1.5-22.4c5.7-14.7,19-24.7,31.1-33.9c1.7-1.2,0-4.1-1.6-2.8c-18.8,14.2-44.8,36.8-32.8,63.5
					c1.6,3.6,3.9,6.7,6.2,9.8c0.1,0.3,0.2,0.5,0.4,0.8c0.3,0.3,0.6,0.6,0.8,0.9c1.6,2.1,3.1,4.2,4.4,6.5c4.3,7.6,5.1,16.5,3.6,25
					c-3.1,16.7-14.7,29.9-25.6,42.3C666.1,223.5,668.4,225.9,669.8,224.3z"/>
				<path class="st5" d="M675.1,96.3c0.2,0.1,0.3,0.1,0.5,0.1c0.4,0,0.8-0.2,1-0.6c0-0.1,4.7-8.7,14-15c0.5-0.3,0.6-1,0.3-1.5
					c-0.3-0.5-1-0.6-1.5-0.3c-9.7,6.6-14.5,15.4-14.7,15.8C674.4,95.4,674.6,96.1,675.1,96.3z"/>
				<path class="st5" d="M710.9,198c5.1-11.8,4.7-24.8-1.4-36.1c-0.7-1.2-2.5-0.1-1.9,1.1c5.7,10.6,6.2,22.9,1.4,33.9
					C708.5,198.2,710.4,199.3,710.9,198z"/>
			</g>
			<g>
				<g>
					<g>
						<path class="st10" d="M656.3,248.6c2.1,0,2.1-3.3,0-3.3C654.2,245.3,654.2,248.6,656.3,248.6L656.3,248.6z"/>
					</g>
				</g>
				<g>
					<g>
						<path class="st10" d="M661.7,247.2c2.1,0,2.1-3.3,0-3.3C659.6,243.9,659.6,247.2,661.7,247.2L661.7,247.2z"/>
					</g>
				</g>
				<g>
					<g>
						<path class="st10" d="M665.7,252.2c2.1,0,2.1-3.3,0-3.3C663.6,249,663.6,252.2,665.7,252.2L665.7,252.2z"/>
					</g>
				</g>
				<g>
					<g>
						<path class="st10" d="M670.1,245.2c0.1-0.1,0.2-0.2,0.4-0.4c0.6-0.6,0.6-1.7,0-2.3c-0.6-0.6-1.7-0.6-2.3,0
							c-0.1,0.1-0.2,0.2-0.4,0.4c-0.6,0.6-0.6,1.7,0,2.3C668.5,245.9,669.5,245.9,670.1,245.2L670.1,245.2z"/>
					</g>
				</g>
				<g>
					<g>
						<path class="st10" d="M675.5,243.2c0.2,0,0.5,0,0.7,0c0.9,0,1.7-0.7,1.6-1.6c0-0.9-0.7-1.6-1.6-1.6c-0.2,0-0.5,0-0.7,0
							c-0.9,0-1.7,0.7-1.6,1.6C673.9,242.4,674.6,243.2,675.5,243.2L675.5,243.2z"/>
					</g>
				</g>
				<g>
					<g>
						<path class="st10" d="M681.3,245c2.1,0,2.1-3.3,0-3.3C679.2,241.7,679.2,245,681.3,245L681.3,245z"/>
					</g>
				</g>
				<g>
					<g>
						<path class="st10" d="M689.6,242.8c0.1,0,0.2,0,0.4,0c0.9,0,1.7-0.7,1.6-1.6c0-0.9-0.7-1.6-1.6-1.6c-0.1,0-0.2,0-0.4,0
							c-0.9,0-1.7,0.7-1.6,1.6C688,242.1,688.7,242.8,689.6,242.8L689.6,242.8z"/>
					</g>
				</g>
				<g>
					<g>
						<path class="st10" d="M696.1,243.5c2.1,0,2.1-3.3,0-3.3C694,240.3,694,243.5,696.1,243.5L696.1,243.5z"/>
					</g>
				</g>
				<g>
					<g>
						<path class="st10" d="M701.9,244.3c2.1,0,2.1-3.3,0-3.3C699.8,241,699.8,244.3,701.9,244.3L701.9,244.3z"/>
					</g>
				</g>
				<g>
					<g>
						<path class="st10" d="M708.5,242.8c2.1,0,2.1-3.3,0-3.3C706.4,239.5,706.4,242.8,708.5,242.8L708.5,242.8z"/>
					</g>
				</g>
				<g>
					<g>
						<path class="st10" d="M715.2,243.7c0-0.1,0-0.2,0-0.4c0-0.9-0.7-1.7-1.6-1.6c-0.9,0-1.6,0.7-1.6,1.6c0,0.1,0,0.2,0,0.4
							c0,0.9,0.7,1.7,1.6,1.6C714.4,245.3,715.2,244.6,715.2,243.7L715.2,243.7z"/>
					</g>
				</g>
				<g>
					<g>
						<path class="st10" d="M721.3,245.2c0-0.1,0-0.2,0-0.4c0-0.9-0.7-1.7-1.6-1.6c-0.9,0-1.6,0.7-1.6,1.6c0,0.1,0,0.2,0,0.4
							c0,0.9,0.7,1.7,1.6,1.6C720.6,246.8,721.3,246.1,721.3,245.2L721.3,245.2z"/>
					</g>
				</g>
				<g>
					<g>
						<path class="st10" d="M708.8,253.3c2.1,0,2.1-3.3,0-3.3C706.7,250.1,706.7,253.3,708.8,253.3L708.8,253.3z"/>
					</g>
				</g>
				<g>
					<g>
						<path class="st10" d="M696.9,250.4c2.1,0,2.1-3.3,0-3.3C694.8,247.2,694.8,250.4,696.9,250.4L696.9,250.4z"/>
					</g>
				</g>
				<g>
					<g>
						<path class="st10" d="M684.6,250.1c2.1,0,2.1-3.3,0-3.3C682.5,246.8,682.5,250.1,684.6,250.1L684.6,250.1z"/>
					</g>
				</g>
				<g>
					<g>
						<path class="st10" d="M675.5,250.8c2.1,0,2.1-3.3,0-3.3C673.4,247.5,673.4,250.8,675.5,250.8L675.5,250.8z"/>
					</g>
				</g>
				<g>
					<g>
						<path class="st10" d="M689.3,246.4c2.1,0,2.1-3.3,0-3.3C687.2,243.2,687.2,246.4,689.3,246.4L689.3,246.4z"/>
					</g>
				</g>
				<g>
					<g>
						<path class="st10" d="M647.3,249c2.1,0,2.1-3.3,0-3.3C645.2,245.7,645.1,249,647.3,249L647.3,249z"/>
					</g>
				</g>
				<g>
					<g>
						<path class="st10" d="M636.9,251.3c0,0.1,0,0.2,0,0.4c0,0.9,0.7,1.7,1.6,1.6c0.9,0,1.6-0.7,1.6-1.6c0-0.1,0-0.2,0-0.4
							c0-0.9-0.7-1.7-1.6-1.6C637.7,249.7,636.9,250.4,636.9,251.3L636.9,251.3z"/>
					</g>
				</g>
				<g>
					<g>
						<path class="st10" d="M644.4,254.4c2.1,0,2.1-3.3,0-3.3C642.3,251.1,642.3,254.4,644.4,254.4L644.4,254.4z"/>
					</g>
				</g>
				<g>
					<g>
						<path class="st10" d="M650.5,252.9c2.1,0,2.1-3.3,0-3.3C648.4,249.7,648.4,252.9,650.5,252.9L650.5,252.9z"/>
					</g>
				</g>
				<g>
					<g>
						<path class="st10" d="M727.1,244.8c0-0.1,0-0.2,0-0.4c0-0.9-0.7-1.7-1.6-1.6c-0.9,0-1.6,0.7-1.6,1.6c0,0.1,0,0.2,0,0.4
							c0,0.9,0.7,1.7,1.6,1.6C726.4,246.4,727.1,245.7,727.1,244.8L727.1,244.8z"/>
					</g>
				</g>
				<g>
					<g>
						<path class="st10" d="M731.6,247.9c0.1,0,0.2,0,0.4,0c0.9,0,1.7-0.7,1.6-1.6c0-0.9-0.7-1.6-1.6-1.6c-0.1,0-0.2,0-0.4,0
							c-0.9,0-1.7,0.7-1.6,1.6C730,247.1,730.7,247.9,731.6,247.9L731.6,247.9z"/>
					</g>
				</g>
				<g>
					<g>
						<path class="st10" d="M736,249.7c2.1,0,2.1-3.3,0-3.3C733.9,246.4,733.9,249.7,736,249.7L736,249.7z"/>
					</g>
				</g>
				<g>
					<g>
						<path class="st10" d="M724.9,251c0-0.1,0-0.2,0-0.4c0-0.9-0.7-1.7-1.6-1.6c-0.9,0-1.6,0.7-1.6,1.6c0,0.1,0,0.2,0,0.4
							c0,0.9,0.7,1.7,1.6,1.6C724.2,252.5,724.9,251.9,724.9,251L724.9,251z"/>
					</g>
				</g>
				<g>
					<g>
						<path class="st10" d="M705.2,249.7c2.1,0,2.1-3.3,0-3.3C703.1,246.4,703.1,249.7,705.2,249.7L705.2,249.7z"/>
					</g>
				</g>
				<g>
					<g>
						<path class="st10" d="M706.3,249.2c0.1-0.1,0.2-0.2,0.4-0.4c0.6-0.6,0.6-1.7,0-2.3c-0.6-0.6-1.7-0.6-2.3,0
							c-0.1,0.1-0.2,0.2-0.4,0.4c-0.6,0.6-0.6,1.7,0,2.3C704.7,249.8,705.7,249.8,706.3,249.2L706.3,249.2z"/>
					</g>
				</g>
				<g>
					<g>
						<path class="st10" d="M684.6,242.8c2.1,0,2.1-3.3,0-3.3C682.5,239.5,682.5,242.8,684.6,242.8L684.6,242.8z"/>
					</g>
				</g>
				<g>
					<g>
						<path class="st10" d="M711.2,246.2c0-0.1,0-0.2,0-0.4c0-0.9-0.7-1.7-1.6-1.6c-0.9,0-1.6,0.7-1.6,1.6c0,0.1,0,0.2,0,0.4
							c0,0.9,0.7,1.7,1.6,1.6C710.4,247.8,711.2,247.2,711.2,246.2L711.2,246.2z"/>
					</g>
				</g>
				<g>
					<g>
						<path class="st10" d="M675.3,245.9c0-0.1,0-0.2,0-0.4c0-0.9-0.7-1.7-1.6-1.6c-0.9,0-1.6,0.7-1.6,1.6c0,0.1,0,0.2,0,0.4
							c0,0.9,0.7,1.7,1.6,1.6C674.6,247.5,675.3,246.8,675.3,245.9L675.3,245.9z"/>
					</g>
				</g>
			</g>
			<g>
				<path d="M572.8,465.1c0-8.6,6.3-15.5,18.1-15.5c1,0,1.7,0,2.5,0.1c0.8,0.1,1.7,0.2,2.3,0.4c-0.1,2-0.1,3.6-0.2,6.5h-0.1
					c-0.5-0.1-0.9-0.2-1.6-0.3c-0.8-0.1-1.8-0.2-2.8-0.2c-6.4,0-10.4,3.6-10.4,9.1c0,5.6,3.7,9.3,9.7,9.3c1.3,0,2.3,0,3.4-0.2
					c0.6-0.1,1.1-0.2,1.8-0.4h0.1c0,1.3,0.2,5,0.2,6.3c-0.5,0.2-1.7,0.4-2.5,0.5c-1.5,0.2-2.4,0.2-3.7,0.2
					C580,480.9,572.8,474.8,572.8,465.1L572.8,465.1z"/>
				<path d="M606.3,476.1c-0.9,2.3-1.6,4-1.8,4.3v0.1H601h-3.8v-0.1c0.1-0.3,0.9-2,6.1-13.6l7.7-17.3h1l7.6,17.3
					c5.1,11.6,5.8,13.3,5.9,13.6v0.1h-3.8h-4.4v-0.1c-0.1-0.3-0.8-2-1.7-4.3H606.3z M613.5,470.3L613.5,470.3
					c-1.6-4-2.2-5.8-2.4-6.8h0c-0.3,1-0.9,2.8-2.5,6.8v0.1H613.5z"/>
				<path d="M628.2,462.9v-12.7v-0.1c1-0.1,3.4-0.2,5.1-0.2c1.2,0,2.8,0,4.3,0.2c1.7,0.2,3.6,0.7,5.3,1.6c2.7,1.5,4.9,4.3,4.9,8.6
					c0,2.1-0.5,3.9-1.3,5.3c-1,1.7-2.3,3-3.9,3.8c-1,0.5-2.2,0.9-3.4,1.2c-1.4,0.3-2.8,0.4-4.2,0.5v1.1v8.2v0.1h-3.7h-3.2v-0.1
					v-13.6V462.9z M640.8,460.3c0-1.5-0.7-2.7-1.8-3.5c-0.8-0.5-1.7-0.8-2.8-0.8c-0.3,0-0.7,0-1.2,0v8.9c0.2,0,0.9,0,1.3,0
					c1.1-0.1,2-0.4,2.7-0.9c0.5-0.4,1-0.9,1.3-1.5C640.7,461.9,640.8,461.2,640.8,460.3L640.8,460.3z"/>
				<path d="M651.7,462.9V450V450h3.7h3.7v0.1v12.8v3.4c0,2.7,0.2,4.4,0.9,5.6c0.9,1.6,2.8,2.5,4.9,2.5c2,0,3.7-0.9,4.7-2.3
					c0.8-1.3,1-3.1,1-5.7v-3.4V450V450h3.6h3.5v0.1v12.8v3.4c0,3.8-0.3,6.2-1.3,8.4c-1.5,3.3-5.6,6.5-11.4,6.5
					c-6,0-10.3-2.5-12.2-6.7c-0.9-2.1-1.1-4.5-1.1-8.1V462.9z"/>
				<path d="M681.4,465.1c0-8.6,6.3-15.5,18.1-15.5c1,0,1.7,0,2.5,0.1c0.8,0.1,1.7,0.2,2.3,0.4c-0.1,2-0.1,3.6-0.2,6.5h-0.1
					c-0.5-0.1-0.9-0.2-1.6-0.3c-0.8-0.1-1.8-0.2-2.8-0.2c-6.4,0-10.4,3.6-10.4,9.1c0,5.6,3.7,9.3,9.7,9.3c1.3,0,2.3,0,3.4-0.2
					c0.6-0.1,1.1-0.2,1.8-0.4h0.1c0,1.3,0.2,5,0.2,6.3c-0.5,0.2-1.7,0.4-2.5,0.5c-1.5,0.2-2.4,0.2-3.7,0.2
					C688.5,480.9,681.4,474.8,681.4,465.1L681.4,465.1z"/>
				<path d="M706.2,465.1c0-8.6,6.3-15.5,18.1-15.5c1,0,1.7,0,2.5,0.1c0.8,0.1,1.7,0.2,2.3,0.4c-0.1,2-0.1,3.6-0.2,6.5h-0.1
					c-0.5-0.1-0.9-0.2-1.6-0.3c-0.8-0.1-1.8-0.2-2.8-0.2c-6.4,0-10.4,3.6-10.4,9.1c0,5.6,3.7,9.3,9.7,9.3c1.3,0,2.3,0,3.4-0.2
					c0.6-0.1,1.1-0.2,1.8-0.4h0.1c0,1.3,0.2,5,0.2,6.3c-0.5,0.2-1.7,0.4-2.5,0.5c-1.5,0.2-2.4,0.2-3.7,0.2
					C713.4,480.9,706.2,474.8,706.2,465.1L706.2,465.1z"/>
				<path d="M741.1,466.8v13.6v0.1h-3.5h-3.8v-0.1v-13.6v-3.9v-12.7V450h3.6h3.6v0.1v12.8V466.8z"/>
				<path d="M773.2,480.9h-0.9c-6.4-5.4-10.2-8.7-12.8-11.1c-2-1.8-3.5-3.2-5.9-5.6h-0.1c0.1,1.6,0.1,2.6,0.1,3.6v12.6v0.1H750h-3.2
					v-0.1v-13.6v-17.1h0.9c6.6,5.6,10.6,9,13.2,11.5c1.8,1.6,3.5,3.3,5.5,5.3h0.1c0-2,0-3.2,0-4.4v-12V450h3.6h3.1v0.1v12.8V480.9z"
					/>
				<path d="M809.2,465.1c0,9-6.8,15.9-16,15.9c-9.1,0-16-6.9-16-15.7c0-8.8,7-15.7,16.3-15.7C802.6,449.6,809.2,456.3,809.2,465.1
					L809.2,465.1z M801.8,465.2c0-5-3.6-9-8.5-9c-5.1,0-8.8,3.8-8.8,9c0,5.1,3.6,9,8.8,9C798.5,474.3,801.8,470.3,801.8,465.2
					L801.8,465.2z"/>
			</g>
			<g>
				<path class="st5" d="M771.2,347.8c4.5,2.6,10,2.3,14.2-0.8c1.1-0.8,0-2.7-1.1-1.9c-3.6,2.7-8.1,3-12,0.8
					C771,345.2,769.9,347.1,771.2,347.8L771.2,347.8z"/>
			</g>
			<g>
				<path class="st5" d="M800.4,281.8c4.3-0.8,8.6-0.2,12.5,1.8c1.2,0.6,2.3-1.2,1.1-1.9c-4.5-2.3-9.3-3-14.2-2
					C798.4,280,799,282.1,800.4,281.8L800.4,281.8z"/>
			</g>
			<g>
				<path class="st5" d="M815.1,287.4c1,2.7,1.5,5.5,1.6,8.4c0,1.4,2.2,1.4,2.2,0c0-3.1-0.6-6.1-1.7-9
					C816.7,285.6,814.6,286.1,815.1,287.4L815.1,287.4z"/>
			</g>
			<path class="st7" d="M785.8,378.2c-8.9-5-45.3-3.3-45.3-3.3l-3.7,4.1c-4.5,2.7-7.5,3.5-7.8,3.6c-0.6,0.1-14,3-38,3
				s-37.3-2.8-37.9-3c-0.4-0.1-7.2-1.9-15.7-9.3c-10.5,2.4-13.4,4.8-13.4,5.9c0,3.7,23,10.5,67,10.5c15.1,0,27.8-0.8,37.8-2
				C728.9,387.6,797.5,384.8,785.8,378.2z"/>
			<path class="st7" d="M777.7,276.4c0.2-0.6,0.4-1.2,0.7-1.7c0.6-0.8,1.7-1.2,2.7-1.3c2.1-0.2,4.2,0.5,5.7,1.9
				c0.4,3.6,0.8,7.3,1.2,10.9c0,0.4,0.1,0.9-0.1,1.2c-0.2,0.3-0.6,0.5-0.9,0.6c-2.9,0.9-6.2-0.5-8-3
				C777.3,282.7,777,279.4,777.7,276.4z"/>
			<path class="st7" d="M803.1,331.6c4.6-4.4,9.1-8.8,13.7-13.3c-2.4,10.5-8.7,20.1-17.4,26.5c-2.5,1.9-5.3,3.5-8,5.1
				c-3,1.8-6,3.5-9.4,4.4c-3.6,0.9-7.4,0.6-11-0.4c-2.7-0.8-5.3-2.2-7.1-4.3c-1.8-2.1-2.8-5.1-2.1-7.8c0.3-1.2,1-2.3,2-2.9
				c1.4-0.8,3.1-0.6,4.7-0.3c5.9,1.3,11.7,4.2,17.7,3.5C792.9,341.2,798.3,336.3,803.1,331.6z"/>
			<path class="st11" d="M654.4,369.5c0,0,84.6-10.3,110.8-78.4c0,0,1.6-0.2,0,8.8c-1.6,9-9.9,49.6-37,71.2
				C728.3,371.1,685.5,380.8,654.4,369.5z"/>
			<path class="st11" d="M662.7,263.7c0,0,99.4-3.7,88.2-18.2c0,0,24.7,7.6,26.5,11.6C777.3,257.1,733.8,273.9,662.7,263.7z"/>
		</g>
	</g>
	<g>
		<g>
			<g>
				<path d="M955.2,467.5v0.9v12v0.1h-3.5H948v-0.1v-11.8v-0.6l-2.9-5c-6.2-10.8-7.2-12.4-7.4-12.8V450h4.5h3.6v0.1
					c0.2,0.4,1.2,2.1,2.6,4.7c1.2,2.1,2.4,4.3,3.1,5.9h0.1c0.7-1.6,1.9-3.6,3.1-5.7c1.6-2.7,2.7-4.6,2.8-4.8V450h4.3h3.4v0.1
					c-0.2,0.4-1.1,2-7.4,12.8L955.2,467.5z"/>
				<path d="M966.8,462.9V450V450h3.7h3.7v0.1v12.8v3.4c0,2.7,0.2,4.4,0.9,5.6c0.9,1.6,2.8,2.5,4.9,2.5c2,0,3.7-0.9,4.7-2.3
					c0.8-1.3,1-3.1,1-5.7v-3.4V450V450h3.6h3.5v0.1v12.8v3.4c0,3.8-0.3,6.2-1.3,8.4c-1.5,3.3-5.6,6.5-11.4,6.5
					c-6,0-10.3-2.5-12.2-6.7c-0.9-2.1-1.1-4.5-1.1-8.1V462.9z"/>
				<path d="M1002.8,476.1c-0.9,2.3-1.6,4-1.8,4.3v0.1h-3.6h-3.8v-0.1c0.1-0.3,0.9-2,6.1-13.6l7.7-17.3h1l7.6,17.3
					c5.1,11.6,5.8,13.3,5.9,13.6v0.1h-3.8h-4.4v-0.1c-0.1-0.3-0.8-2-1.7-4.3H1002.8z M1010,470.3L1010,470.3c-1.6-4-2.2-5.8-2.4-6.8
					h0c-0.3,1-0.9,2.8-2.5,6.8v0.1H1010z"/>
				<path d="M1051.1,480.9h-0.9c-6.4-5.4-10.2-8.7-12.8-11.1c-2-1.8-3.5-3.2-5.9-5.6h-0.1c0.1,1.6,0.1,2.6,0.1,3.6v12.6v0.1h-3.6
					h-3.2v-0.1v-13.6v-17.1h0.9c6.6,5.6,10.6,9,13.2,11.5c1.8,1.6,3.5,3.3,5.5,5.3h0.1c0-2,0-3.2,0-4.4v-12V450h3.6h3.1v0.1v12.8
					V480.9z"/>
				<path d="M1070.7,467.5v0.9v12v0.1h-3.5h-3.7v-0.1v-11.8v-0.6l-2.9-5c-6.2-10.8-7.2-12.4-7.4-12.8V450h4.5h3.6v0.1
					c0.2,0.4,1.2,2.1,2.6,4.7c1.2,2.1,2.4,4.3,3.1,5.9h0.1c0.7-1.6,1.9-3.6,3.1-5.7c1.6-2.7,2.7-4.6,2.8-4.8V450h4.3h3.4v0.1
					c-0.2,0.4-1.1,2-7.4,12.8L1070.7,467.5z"/>
				<path d="M1085.3,476.1c-0.9,2.3-1.6,4-1.8,4.3v0.1h-3.6h-3.8v-0.1c0.1-0.3,0.9-2,6.1-13.6l7.7-17.3h1l7.6,17.3
					c5.1,11.6,5.8,13.3,5.9,13.6v0.1h-3.8h-4.4v-0.1c-0.1-0.3-0.8-2-1.7-4.3H1085.3z M1092.4,470.3L1092.4,470.3
					c-1.6-4-2.2-5.8-2.4-6.8h0c-0.3,1-0.9,2.8-2.5,6.8v0.1H1092.4z"/>
				<path d="M1133.5,480.9h-0.9c-6.4-5.4-10.2-8.7-12.8-11.1c-2-1.8-3.5-3.2-5.9-5.6h-0.1c0.1,1.6,0.1,2.6,0.1,3.6v12.6v0.1h-3.6
					h-3.2v-0.1v-13.6v-17.1h0.9c6.6,5.6,10.6,9,13.2,11.5c1.8,1.6,3.5,3.3,5.5,5.3h0.1c0-2,0-3.2,0-4.4v-12V450h3.6h3.1v0.1v12.8
					V480.9z"/>
				<path d="M1137.4,465.1c0-8.9,7-15.6,18.1-15.6c1.5,0,2.8,0.1,4,0.2c1,0.1,2,0.3,3.1,0.5c-0.1,2-0.2,3.4-0.2,6.5h-0.1
					c-0.5-0.2-1.2-0.3-2.1-0.5c-1.1-0.2-2.4-0.4-4.1-0.4c-6.3,0-10.8,3.4-10.8,9.3c0,5.7,3.6,9.4,8.8,9.4c0.4,0,1,0,1.6-0.1v-2.1
					v-6.2V466h3.6h3.6v0.1v6.3v3.7v3.7c-1.8,0.7-4.4,1.3-8.5,1.3C1144.9,480.9,1137.4,474.9,1137.4,465.1L1137.4,465.1z"/>
			</g>
			<g>
				<path class="st3" d="M1108.3,370.5c9.3,2.3,13.8,5.1,13.8,8.6c0,10.1-42,13.7-70.2,13.7c-28.2,0-70.2-3.7-70.2-13.7
					c0-3.4,4.5-6.3,13.8-8.6c-1.4-1.4-2.9-3-4.4-4.8c-38.2,4.8-48.4,12.5-48.4,15.9c0,2.6,6.4,8.2,30.6,12.9
					c21,4.1,48.9,6.4,78.6,6.4c29.7,0,57.7-2.3,78.6-6.4c24.2-4.7,30.6-10.3,30.6-12.9c0-3.4-10.2-11.1-48.4-15.9
					C1111.2,367.5,1109.8,369.1,1108.3,370.5z"/>
				<path class="st3" d="M1135.9,255.5c-4.8-3.8-35.8-8.8-84-8.8c-48.2,0-79.2,5.1-84,8.8c4.8,3.8,35.8,8.8,84,8.8
					C1100.1,264.3,1131.1,259.3,1135.9,255.5z"/>
				<path class="st3" d="M1152,284.8c5.5-0.7,11.8-1.4,16.2,2.1c2.7,2.2,4.2,5.7,4.5,10.6c1.3,18.7-14.5,40.7-28.3,45.6
					c-2.1,0.7-4.2,1.1-6.1,1.1c-3.9,0-7.4-1.5-10.3-4.4c-0.8,1.9-1.6,3.8-2.5,5.6c4.8,6.1,11.3,7.8,19.3,4.9
					c17.8-6.4,39-35.9,37.4-59.8c-0.4-5.3-1.7-8.8-4.2-10.9c-4.1-3.3-11.2-2.5-18.2-1.6c-6.6,0.8-13.9,1.7-18.8-1.5
					c-0.1,2-0.3,4-0.4,5.9c0.1,0.2,0.2,0.3,0.3,0.5C1142.1,285.8,1145.9,285.5,1152,284.8z M1146.2,347c-4.2,3.1-9.7,3.4-14.2,0.8
					c-1.2-0.7-0.1-2.6,1.1-1.9c3.9,2.2,8.4,1.9,12-0.8C1146.2,344.3,1147.3,346.2,1146.2,347z M1178,286.9c1.1,2.9,1.6,5.9,1.7,9
					c0,1.4-2.2,1.4-2.2,0c0-2.9-0.6-5.7-1.6-8.4C1175.4,286.1,1177.5,285.6,1178,286.9z M1160.6,279.7c4.9-0.9,9.7-0.3,14.2,2
					c1.2,0.6,0.1,2.5-1.1,1.9c-3.9-2-8.2-2.6-12.5-1.8C1159.8,282.1,1159.3,280,1160.6,279.7z"/>
				<path class="st3" d="M1051.9,389.6c44,0,67-6.8,67-10.5c0-1-2.9-3.5-13.4-5.9c-8.5,7.4-15.2,9.2-15.6,9.3c-0.6,0.1-14,3-38,3
					c-24,0-37.3-2.8-37.9-3c-0.4-0.1-7.2-1.9-15.7-9.3c-10.5,2.4-13.4,4.8-13.4,5.9C984.9,382.8,1007.9,389.6,1051.9,389.6z"/>
				<path class="st3" d="M1113.8,266.3c-16.6,2.2-38.5,3.4-61.9,3.4s-45.4-1.2-61.9-3.4c-11.5-1.5-18.4-3.2-22.4-5
					c1.7,103.2,47.2,115.8,47.6,115.9c0,0,13.3,2.8,36.7,2.8c23.4,0,36.6-2.8,36.7-2.8c0,0,11.9-3.3,23.6-19.6
					c10.6-14.8,23.1-43.3,24-96.2C1132.1,263.1,1125.3,264.8,1113.8,266.3z M1090.2,372.3C1090.1,372.3,1090.1,372.3,1090.2,372.3
					C1090.1,372.4,1090.1,372.4,1090.2,372.3C1090.1,372.4,1090.1,372.4,1090.2,372.3c-0.2,0.1-0.3,0.2-0.4,0.2c0,0-0.1,0-0.1,0
					c0,0,0,0-0.1,0c-0.2,0-16.7,3.6-37.7,3.8c-21-0.2-37.5-3.8-37.7-3.8c0,0,0,0-0.1,0c0,0-0.1,0-0.1,0c-0.1,0-0.2-0.1-0.3-0.2
					c0,0,0,0,0,0c0,0,0,0,0,0c0,0,0,0,0,0c-40.7-27-41.2-99.2-41.2-102.2c0-0.9,0.7-1.6,1.6-1.6c0.9,0,1.6,0.7,1.6,1.6
					c0,0.2,0,7.1,1.2,17.4c24.1,8.1,49.3-0.4,73.9-1.1c12.9-0.4,24.6,2.6,36.9,6c12.6,3.5,26.4,6.2,38.3-0.9
					c0.1-0.1,0.3-0.1,0.4-0.2c1.6-12.4,1.7-21,1.7-21.3c0-0.9,0.7-1.6,1.6-1.6c0.9,0,1.6,0.7,1.6,1.6
					C1131.4,273.2,1130.9,345.3,1090.2,372.3z"/>
				<path class="st9" d="M1092,332.7c-10.2,3-21.2,2.3-31.5,0c-24.2-5.4-51.2-21.1-75.5-7.5c5.8,17.2,15.1,34.2,30.2,44.4
					c2.3,0.5,17.6,3.5,36.7,3.7c19-0.2,34.4-3.2,36.7-3.7c17.4-11.7,27.2-32.6,32.6-52.2c-6.1,0.5-10.6,4.5-15.4,8.1
					C1101.6,328.6,1097.1,331.2,1092,332.7z"/>
				<path class="st12" d="M1094.7,297.6c-14.2-3.2-27.3-8.2-42.1-8c-25.1,0.3-50.7,9.1-75.3,1.4c1.2,8.9,3.2,19.9,6.6,30.9
					c22.4-12,47.2-0.9,69.5,5.5c12.7,3.6,26.5,5.9,39.3,1.5c10.5-3.6,17.6-14.5,29.1-15c0.1,0,0.1,0,0.2,0
					c1.7-6.5,2.9-12.9,3.8-18.6C1116.2,300.3,1105.2,300,1094.7,297.6z"/>
				<path class="st5" d="M1137.7,357.2c2.8,0,5.8-0.6,9-1.7c20-7.2,42.8-38.7,40.9-65.3c-0.5-6.9-2.5-11.7-6.2-14.7
					c-5.9-4.8-14.2-3.8-22.3-2.8c-9.3,1.2-15.2,1.5-17.3-3.3c-0.1-0.2-0.2-0.4-0.4-0.6c0.2-4.3,0.2-8.8,0.2-13.3
					c0-3.5-3.3-7.6-27.9-10.8c-16.6-2.2-38.5-3.4-61.9-3.4c-23.4,0-45.4,1.2-61.9,3.4c-23.2,3.1-27.4,6.9-27.8,10.2
					c0,0.2-0.1,0.4-0.1,0.6c0,46.7,8.4,82.1,25.1,105.3c-23.8,3.2-49.9,9.3-49.9,20.9c0,18.1,68.6,24.7,114.7,24.7
					c46.1,0,114.7-6.6,114.7-24.7c0-11.5-26.2-17.7-49.9-20.9c2.3-3.1,4.4-6.5,6.3-10.1C1127,355,1132,357.2,1137.7,357.2z
					 M1141,276.6c4.9,3.2,12.2,2.3,18.8,1.5c6.9-0.9,14.1-1.8,18.2,1.6c2.5,2,3.8,5.6,4.2,10.9c1.7,24-19.5,53.4-37.4,59.8
					c-8,2.9-14.4,1.2-19.3-4.9c0.9-1.8,1.7-3.7,2.5-5.6c2.9,2.9,6.4,4.4,10.3,4.4c1.9,0,4-0.4,6.1-1.1c13.8-4.9,29.5-26.9,28.3-45.6
					c-0.3-4.9-1.8-8.4-4.5-10.6c-4.4-3.6-10.6-2.8-16.2-2.1c-6.1,0.7-9.9,1-11.1-1.7c-0.1-0.2-0.2-0.4-0.3-0.5
					C1140.7,280.6,1140.9,278.6,1141,276.6z M1152.6,290.2c4.7-0.6,9.5-1.2,12.1,0.9c1.5,1.2,2.3,3.5,2.6,6.8
					c1.1,16.2-12.9,35.9-24.7,40.1c-5.1,1.8-9.1,0.6-12.1-3.7c-0.1-0.1-0.1-0.2-0.2-0.2c4.6-12.8,7.9-27.7,9.7-44.5
					C1143.5,291.3,1148.3,290.7,1152.6,290.2z M1051.9,246.7c48.2,0,79.2,5.1,84,8.8c-4.8,3.8-35.8,8.8-84,8.8
					c-48.2,0-79.2-5.1-84-8.8C972.7,251.7,1003.7,246.7,1051.9,246.7z M1161.1,381.7c0,2.6-6.4,8.2-30.6,12.9
					c-21,4.1-48.9,6.4-78.6,6.4c-29.7,0-57.7-2.3-78.6-6.4c-24.2-4.7-30.6-10.3-30.6-12.9c0-3.4,10.2-11.1,48.4-15.9
					c1.5,1.8,3,3.4,4.4,4.8c-9.2,2.3-13.8,5.1-13.8,8.6c0,10.1,42,13.7,70.2,13.7c28.2,0,70.2-3.7,70.2-13.7c0-3.4-4.5-6.3-13.8-8.6
					c1.4-1.4,2.9-3,4.4-4.8C1150.9,370.6,1161.1,378.2,1161.1,381.7z M998.3,373.2c8.5,7.4,15.2,9.2,15.7,9.3c0.6,0.1,13.9,3,37.9,3
					c24,0,37.3-2.8,38-3c0.4-0.1,7.1-1.9,15.6-9.3c10.5,2.4,13.4,4.9,13.4,5.9c0,3.7-23,10.5-67,10.5c-44,0-67-6.8-67-10.5
					C984.9,378.1,987.8,375.6,998.3,373.2z M1112.2,357.6c-11.7,16.4-23.6,19.6-23.6,19.6c-0.1,0-13.4,2.8-36.7,2.8
					c-23.4,0-36.6-2.8-36.7-2.8c-0.5-0.1-46-12.7-47.6-115.9c4,1.7,10.9,3.5,22.4,5c16.6,2.2,38.5,3.4,61.9,3.4s45.4-1.2,61.9-3.4
					c11.5-1.5,18.4-3.2,22.4-5C1135.3,314.3,1122.8,342.8,1112.2,357.6z"/>
				<path class="st5" d="M1129.7,268.5c-0.9,0-1.6,0.7-1.6,1.6c0,0.3-0.1,8.9-1.7,21.3c-0.1,0-0.3,0.1-0.4,0.2
					c-11.9,7.1-25.7,4.4-38.3,0.9c-12.3-3.5-24-6.4-36.9-6c-24.6,0.7-49.8,9.2-73.9,1.1c-1.2-10.2-1.2-17.2-1.2-17.4
					c0-0.9-0.7-1.6-1.6-1.6c-0.9,0-1.6,0.7-1.6,1.6c0,3.1,0.5,75.2,41.2,102.2c0,0,0,0,0,0c0,0,0,0,0,0c0,0,0,0,0,0
					c0.1,0.1,0.2,0.1,0.3,0.2c0,0,0.1,0,0.1,0c0,0,0,0,0.1,0c0.2,0,16.7,3.6,37.7,3.8c20.9-0.2,37.5-3.8,37.7-3.8c0,0,0,0,0.1,0
					c0,0,0.1,0,0.1,0c0.1,0,0.2-0.1,0.3-0.2c0,0,0,0,0,0c0,0,0,0,0,0c0,0,0,0,0,0c40.7-27,41.2-99.2,41.2-102.2
					C1131.4,269.2,1130.6,268.5,1129.7,268.5z M1088.6,369.5c-2.3,0.5-17.6,3.5-36.7,3.7c-19.1-0.2-34.4-3.2-36.7-3.7
					c-15.1-10.1-24.5-27.2-30.2-44.4c24.3-13.5,51.2,2.1,75.5,7.5c10.3,2.3,21.3,3.1,31.5,0c5.1-1.5,9.6-4.1,13.9-7.3
					c4.7-3.5,9.3-7.5,15.4-8.1C1115.7,336.9,1106,357.8,1088.6,369.5z M1122.1,314c-0.1,0-0.1,0-0.2,0c-11.5,0.5-18.6,11.4-29.1,15
					c-12.8,4.4-26.6,2.1-39.3-1.5c-22.4-6.4-47.1-17.5-69.5-5.5c-3.4-11.1-5.5-22-6.6-30.9c24.6,7.7,50.2-1.1,75.3-1.4
					c14.8-0.2,27.9,4.8,42.1,8c10.4,2.3,21.5,2.7,31.1-2.2C1125,301.1,1123.8,307.5,1122.1,314z"/>
				<path class="st5" d="M1145.1,345.1c-3.6,2.7-8.1,3-12,0.8c-1.2-0.7-2.3,1.2-1.1,1.9c4.5,2.6,10,2.3,14.2-0.8
					C1147.3,346.2,1146.2,344.3,1145.1,345.1z"/>
				<path class="st5" d="M1161.2,281.8c4.3-0.8,8.6-0.2,12.5,1.8c1.2,0.6,2.3-1.2,1.1-1.9c-4.5-2.3-9.3-3-14.2-2
					C1159.3,280,1159.8,282.1,1161.2,281.8z"/>
				<path class="st5" d="M1177.5,295.9c0,1.4,2.2,1.4,2.2,0c0-3.1-0.6-6.1-1.7-9c-0.5-1.3-2.6-0.7-2.1,0.6
					C1176.9,290.2,1177.5,293,1177.5,295.9z"/>
				<path class="st5" d="M1030.6,224.3c14.8-16.9,32.9-40.1,25.9-63.2c3.9,5.8,6.6,12.2,6.7,19.7c0.1,13.9-7.1,26.3-14,37.9
					c-1.1,1.8,1.8,3.5,2.8,1.6c7.4-12.6,15.3-26.3,14.3-41.5c-0.8-13.4-9.3-23.5-18.1-32.8c-3.2-4.3-6.4-8.5-8.1-13.7
					c-2.3-7.3-1.3-15.4,1.5-22.4c5.7-14.7,19-24.7,31.1-33.9c1.7-1.2,0-4.1-1.6-2.8c-18.8,14.2-44.8,36.8-32.8,63.5
					c1.6,3.6,3.9,6.7,6.2,9.8c0.1,0.3,0.2,0.5,0.4,0.8c0.3,0.3,0.6,0.6,0.8,0.9c1.6,2.1,3.1,4.2,4.4,6.5c4.3,7.6,5.1,16.5,3.6,25
					c-3.1,16.7-14.7,29.9-25.6,42.3C1026.9,223.5,1029.2,225.9,1030.6,224.3z"/>
				<path class="st5" d="M1035.9,96.3c0.2,0.1,0.3,0.1,0.5,0.1c0.4,0,0.8-0.2,1-0.6c0-0.1,4.7-8.7,14-15c0.5-0.3,0.6-1,0.3-1.5
					c-0.3-0.5-1-0.6-1.5-0.3c-9.7,6.6-14.5,15.4-14.7,15.8C1035.2,95.4,1035.4,96.1,1035.9,96.3z"/>
				<path class="st5" d="M1071.7,198c5.1-11.8,4.7-24.8-1.4-36.1c-0.7-1.2-2.5-0.1-1.9,1.1c5.7,10.6,6.2,22.9,1.4,33.9
					C1069.3,198.2,1071.2,199.3,1071.7,198z"/>
			</g>
			<path class="st7" d="M1146.7,378.2c-8.9-5-45.3-3.3-45.3-3.3l-3.7,4.1c-4.5,2.7-7.5,3.5-7.8,3.6c-0.6,0.1-14,3-38,3
				c-24,0-37.3-2.8-37.9-3c-0.4-0.1-7.2-1.9-15.7-9.3c-10.5,2.4-13.4,4.8-13.4,5.9c0,3.7,23,10.5,67,10.5c15.1,0,27.8-0.8,37.8-2
				C1089.7,387.6,1158.3,384.8,1146.7,378.2z"/>
			<path class="st7" d="M979.1,259.1c13.8,2.8,39.1,5.2,72.8,5.2c33.7,0,59-2.5,72.8-5.2c-9.2-3.1-35.2-6.5-72.8-6.5
				C1014.3,252.5,988.3,255.9,979.1,259.1z"/>
			<path class="st7" d="M1138.5,276.4c0.2-0.6,0.4-1.2,0.7-1.7c0.6-0.8,1.7-1.2,2.7-1.3c2.1-0.2,4.2,0.5,5.7,1.9
				c0.4,3.6,0.8,7.3,1.2,10.9c0,0.4,0.1,0.9-0.1,1.2c-0.2,0.3-0.6,0.5-0.9,0.6c-2.9,0.9-6.2-0.5-8-3
				C1138.1,282.7,1137.8,279.4,1138.5,276.4z"/>
			<path class="st7" d="M1163.9,331.6c4.6-4.4,9.1-8.8,13.7-13.3c-2.4,10.5-8.7,20.1-17.4,26.5c-2.5,1.9-5.3,3.5-8,5.1
				c-3,1.8-6,3.5-9.4,4.4c-3.6,0.9-7.4,0.6-11-0.4c-2.7-0.8-5.3-2.2-7.1-4.3c-1.8-2.1-2.8-5.1-2.1-7.8c0.3-1.2,1-2.3,2-2.9
				c1.4-0.8,3.1-0.6,4.7-0.3c5.9,1.3,11.7,4.2,17.7,3.5C1153.7,341.2,1159.1,336.3,1163.9,331.6z"/>
			<path class="st11" d="M1015.2,369.5c0,0,84.2-10.5,110.6-74.1c0,0,1.4-1.2,1.4,2c0,3.1-7.5,54.8-38.2,73.5
				C1089.1,370.8,1059.9,381.4,1015.2,369.5z"/>
		</g>
	</g>
	<g>
		<g>
			<g>
				<path d="M943.7,897.7h0.9c9,14,10.4,16.5,11.7,18.9h0.1c1.2-2.3,2.6-4.8,11.9-18.9h0.9l2.5,17.1c1.7,11.6,2,13.4,2,13.6v0.1
					h-3.6h-3.8v-0.1c0-0.2-0.4-2.4-1.1-7.6c-0.2-1.5-0.5-3.9-0.6-6.2h0c-1.1,2.4-1.8,3.6-2.7,5.2c-1,1.7-2.9,4.7-5.3,8.4h-0.9
					c-2.6-3.8-4.5-6.8-5.5-8.6c-0.9-1.5-1.6-2.9-2.6-5h0c-0.1,2.4-0.4,4.8-0.6,6.3c-0.6,5.2-0.9,7.3-0.9,7.6v0.1h-3.7H939v-0.1
					c0.1-0.3,0.4-2,2.2-13.6L943.7,897.7z"/>
				<path d="M984.5,914.7v13.6v0.1h-3.5h-3.8v-0.1v-13.6v-3.9v-12.7v-0.2h3.6h3.6v0.1v12.8V914.7z"/>
				<path d="M996.2,924c-0.9,2.3-1.6,4-1.8,4.3v0.1h-3.6H987v-0.1c0.1-0.3,0.9-2,6.1-13.6l7.7-17.3h1l7.6,17.3
					c5.1,11.6,5.8,13.3,5.9,13.6v0.1h-3.8h-4.4v-0.1c-0.1-0.3-0.8-2-1.7-4.3H996.2z M1003.3,918.2L1003.3,918.2
					c-1.6-4-2.2-5.8-2.4-6.8h0c-0.3,1-0.9,2.8-2.5,6.8v0.1H1003.3z"/>
				<path d="M1021.4,897.7h0.9c9,14,10.4,16.5,11.7,18.9h0.1c1.2-2.3,2.6-4.8,11.8-18.9h0.9l2.5,17.1c1.7,11.6,2,13.4,2,13.6v0.1
					h-3.6h-3.8v-0.1c0-0.2-0.4-2.4-1.1-7.6c-0.2-1.5-0.5-3.9-0.6-6.2h0c-1.1,2.4-1.8,3.6-2.7,5.2c-1,1.7-2.9,4.7-5.3,8.4h-0.9
					c-2.6-3.8-4.5-6.8-5.5-8.6c-0.9-1.5-1.6-2.9-2.6-5h0c-0.1,2.4-0.4,4.8-0.6,6.3c-0.6,5.2-0.9,7.3-0.9,7.6v0.1h-3.7h-3.3v-0.1
					c0.1-0.3,0.4-2,2.2-13.6L1021.4,897.7z"/>
				<path d="M1062.2,914.7v13.6v0.1h-3.5h-3.8v-0.1v-13.6v-3.9v-12.7v-0.2h3.6h3.6v0.1v12.8V914.7z"/>
				<path d="M1091,929h-0.9l-8.7-18.2c-5.2-10.8-6-12.6-6.1-12.8v-0.1h4h4.2v0.1c0.1,0.3,0.9,2,4.1,9c1.6,3.5,2.3,5.3,3.2,7.8h0.1
					c0.9-2.5,1.6-4.3,3.1-7.8c3.1-7,3.9-8.8,4.1-9.1v-0.1h4.2h3.5v0.1c-0.1,0.3-0.9,2-6.1,12.8L1091,929z"/>
				<path d="M1115.5,914.7v13.6v0.1h-3.5h-3.8v-0.1v-13.6v-3.9v-12.7v-0.2h3.6h3.6v0.1v12.8V914.7z"/>
				<path d="M1119.4,913c0-8.6,6.3-15.5,18.1-15.5c1,0,1.7,0,2.5,0.1c0.8,0.1,1.7,0.2,2.3,0.4c-0.1,2-0.1,3.6-0.2,6.5h-0.1
					c-0.5-0.1-0.9-0.2-1.6-0.3c-0.8-0.1-1.8-0.2-2.8-0.2c-6.4,0-10.4,3.6-10.4,9.1c0,5.6,3.7,9.3,9.7,9.3c1.3,0,2.3,0,3.4-0.2
					c0.6-0.1,1.1-0.2,1.8-0.4h0.1c0,1.3,0.2,5,0.2,6.3c-0.5,0.2-1.7,0.4-2.5,0.5c-1.5,0.2-2.4,0.2-3.7,0.2
					C1126.6,928.9,1119.4,922.7,1119.4,913L1119.4,913z"/>
				<path d="M1147.1,910.8V898v-0.1h8.5h7.7v6.1h-0.1h-4.7h-4.2v6h4.5h3.3h0.1v2.9v3.1h-0.1h-3.2h-4.6v5.5v0.8h6.2h3h0.1v6.1h-7.4
					h-9v-0.1v-13.6V910.8z"/>
			</g>
			<g>
				<path class="st3" d="M1051.9,837.5c44,0,67-6.8,67-10.5c0-1-2.9-3.5-13.4-5.9c-8.5,7.4-15.2,9.2-15.6,9.3c-0.6,0.1-14,3-38,3
					c-24,0-37.3-2.8-37.9-3c-0.4-0.1-7.2-1.9-15.7-9.3c-10.5,2.4-13.4,4.8-13.4,5.9C984.9,830.7,1007.9,837.5,1051.9,837.5z"/>
				<path class="st3" d="M1108.3,818.5c9.3,2.3,13.8,5.1,13.8,8.6c0,10.1-42,13.7-70.2,13.7c-28.2,0-70.2-3.7-70.2-13.7
					c0-3.4,4.5-6.3,13.8-8.6c-1.4-1.4-2.9-3-4.4-4.8c-38.2,4.8-48.4,12.5-48.4,15.9c0,2.6,6.4,8.2,30.6,12.9
					c21,4.1,48.9,6.4,78.6,6.4c29.7,0,57.7-2.3,78.6-6.4c24.2-4.7,30.6-10.3,30.6-12.9c0-3.4-10.2-11.1-48.4-15.9
					C1111.2,815.5,1109.8,817.1,1108.3,818.5z"/>
				<path class="st3" d="M1135.9,703.4c-4.8-3.8-35.8-8.8-84-8.8c-48.2,0-79.2,5.1-84,8.8c4.8,3.8,35.8,8.8,84,8.8
					C1100.1,712.3,1131.1,707.2,1135.9,703.4z"/>
				<path class="st13" d="M1057.6,770.6c-24-2.1-49.3-7.4-72.4,2.4c-0.1,0-0.2,0.1-0.3,0.1c5.8,17.2,15.1,34.2,30.2,44.3
					c2.3,0.5,17.6,3.5,36.7,3.7c19-0.2,34.4-3.2,36.7-3.7c18.6-12.4,28.4-35.3,33.7-56C1101.5,770,1079.9,772.6,1057.6,770.6z"/>
				<path class="st3" d="M1113.8,714.3c-16.6,2.2-38.5,3.4-61.9,3.4c-23.4,0-45.4-1.2-61.9-3.4c-11.5-1.5-18.4-3.2-22.4-5
					c1.7,103.2,47.2,115.8,47.6,115.9c0,0,13.3,2.8,36.7,2.8c23.4,0,36.6-2.8,36.7-2.8c0,0,11.9-3.3,23.6-19.6
					c10.6-14.8,23.1-43.3,24-96.2C1132.1,711.1,1125.3,712.8,1113.8,714.3z M1090.2,820.3C1090.1,820.3,1090.1,820.3,1090.2,820.3
					C1090.1,820.3,1090.1,820.3,1090.2,820.3C1090.1,820.3,1090.1,820.3,1090.2,820.3c-0.2,0.1-0.3,0.2-0.4,0.2c0,0-0.1,0-0.1,0
					c0,0,0,0-0.1,0c-0.2,0-16.7,3.6-37.7,3.8c-21-0.2-37.5-3.8-37.7-3.8c0,0,0,0-0.1,0c0,0-0.1,0-0.1,0c-0.1,0-0.2-0.1-0.3-0.2
					c0,0,0,0,0,0c0,0,0,0,0,0c0,0,0,0,0,0c-40.7-27-41.2-99.2-41.2-102.2c0-0.9,0.7-1.6,1.6-1.6c0.9,0,1.6,0.7,1.6,1.6
					c0,0.2,0,5,0.7,12.6c25.9-2.6,50.5,7.7,76,9.8c25.9,2.1,51.9-2.8,75.3-14c0.4-5.1,0.4-8.3,0.4-8.5c0-0.9,0.7-1.6,1.6-1.6
					s1.6,0.7,1.6,1.6C1131.4,721.1,1130.9,793.3,1090.2,820.3z"/>
				<path class="st3" d="M1152,732.7c5.6-0.7,11.8-1.4,16.2,2.1c2.7,2.2,4.2,5.7,4.5,10.6c1.3,18.7-14.5,40.7-28.3,45.6
					c-2.1,0.7-4.2,1.1-6.1,1.1c-3.9,0-7.4-1.5-10.3-4.4c-0.8,1.9-1.6,3.8-2.5,5.6c4.8,6.1,11.3,7.8,19.3,4.9
					c17.8-6.4,39-35.9,37.4-59.8c-0.4-5.3-1.7-8.8-4.2-10.9c-4.1-3.3-11.2-2.5-18.2-1.6c-6.6,0.8-13.9,1.7-18.8-1.5
					c-0.1,2-0.3,4-0.4,5.9c0.1,0.2,0.2,0.3,0.3,0.5C1142.1,733.7,1145.9,733.5,1152,732.7z M1146.2,795c-4.2,3.1-9.7,3.4-14.2,0.8
					c-1.2-0.7-0.1-2.6,1.1-1.9c3.9,2.2,8.4,1.9,12-0.8C1146.2,792.2,1147.3,794.1,1146.2,795z M1178,734.8c1.1,2.9,1.6,5.9,1.7,9
					c0,1.4-2.2,1.4-2.2,0c0-2.9-0.6-5.7-1.6-8.4C1175.4,734.1,1177.5,733.5,1178,734.8z M1160.6,727.7c4.9-0.9,9.7-0.3,14.2,2
					c1.2,0.6,0.1,2.5-1.1,1.9c-3.9-2-8.2-2.6-12.5-1.8C1159.8,730,1159.3,727.9,1160.6,727.7z"/>
				<path class="st9" d="M1056.2,744c-26.7-1.5-52.6-12.7-79.5-10.1c1,9.7,3.1,22.9,7.3,36.2c21-8.7,43.5-5.9,65.5-3.5
					c25.2,2.7,49.4,1.5,73-8.7c0.2-0.1,0.5-0.1,0.7-0.1c2.4-10.5,3.7-20.3,4.3-27.5C1105.2,740.4,1080.7,745.4,1056.2,744z"/>
				<path class="st5" d="M1137.7,805.1c2.8,0,5.8-0.6,9-1.7c20-7.2,42.8-38.7,40.9-65.3c-0.5-6.9-2.5-11.7-6.2-14.7
					c-5.9-4.8-14.2-3.8-22.3-2.8c-9.3,1.2-15.2,1.5-17.3-3.3c-0.1-0.2-0.2-0.4-0.4-0.6c0.2-4.3,0.2-8.8,0.2-13.3
					c0-3.5-3.3-7.6-27.9-10.8c-16.6-2.2-38.5-3.4-61.9-3.4c-23.4,0-45.4,1.2-61.9,3.4c-23.2,3.1-27.4,6.9-27.8,10.2
					c0,0.2-0.1,0.4-0.1,0.6c0,46.7,8.4,82.1,25.1,105.3c-23.8,3.2-49.9,9.3-49.9,20.9c0,18.1,68.6,24.7,114.7,24.7
					c46.1,0,114.7-6.6,114.7-24.7c0-11.5-26.2-17.7-49.9-20.9c2.3-3.1,4.4-6.5,6.3-10.1C1127,802.9,1132,805.1,1137.7,805.1z
					 M1141,724.6c4.9,3.2,12.2,2.3,18.8,1.5c6.9-0.9,14.1-1.8,18.2,1.6c2.5,2,3.8,5.6,4.2,10.9c1.7,24-19.5,53.4-37.4,59.8
					c-8,2.9-14.4,1.2-19.3-4.9c0.9-1.8,1.7-3.7,2.5-5.6c2.9,2.9,6.3,4.4,10.3,4.4c1.9,0,4-0.4,6.1-1.1c13.8-4.9,29.5-26.9,28.3-45.6
					c-0.3-4.9-1.8-8.4-4.5-10.6c-4.4-3.6-10.6-2.8-16.2-2.1c-6.1,0.7-9.9,1-11.1-1.7c-0.1-0.2-0.2-0.4-0.3-0.5
					C1140.8,728.5,1140.9,726.6,1141,724.6z M1152.6,738.1c4.7-0.6,9.5-1.2,12.1,0.9c1.5,1.2,2.3,3.5,2.6,6.8
					c1.1,16.2-12.9,35.9-24.7,40.1c-5.1,1.8-9.1,0.6-12.1-3.7c-0.1-0.1-0.1-0.2-0.2-0.2c4.6-12.8,7.9-27.7,9.7-44.5
					C1143.5,739.2,1148.3,738.7,1152.6,738.1z M1051.9,694.6c48.2,0,79.2,5.1,84,8.8c-4.8,3.8-35.8,8.8-84,8.8
					c-48.2,0-79.2-5.1-84-8.8C972.7,699.7,1003.7,694.6,1051.9,694.6z M1161.1,829.6c0,2.6-6.4,8.2-30.6,12.9
					c-21,4.1-48.9,6.4-78.6,6.4c-29.7,0-57.7-2.3-78.6-6.4c-24.2-4.7-30.6-10.3-30.6-12.9c0-3.4,10.2-11.1,48.4-15.9
					c1.5,1.8,3,3.4,4.4,4.8c-9.2,2.3-13.8,5.1-13.8,8.6c0,10.1,42,13.7,70.2,13.7c28.2,0,70.2-3.7,70.2-13.7c0-3.4-4.5-6.3-13.8-8.6
					c1.4-1.4,2.9-3,4.4-4.8C1150.9,818.5,1161.1,826.2,1161.1,829.6z M998.3,821.2c8.5,7.4,15.2,9.2,15.7,9.3c0.6,0.1,13.9,3,37.9,3
					c24,0,37.3-2.8,38-3c0.4-0.1,7.1-1.9,15.6-9.3c10.5,2.4,13.4,4.9,13.4,5.9c0,3.7-23,10.5-67,10.5c-44,0-67-6.8-67-10.5
					C984.9,826,987.8,823.5,998.3,821.2z M1112.2,805.5c-11.7,16.4-23.6,19.6-23.6,19.6c-0.1,0-13.4,2.8-36.7,2.8
					c-23.4,0-36.6-2.8-36.7-2.8c-0.5-0.1-46-12.7-47.6-115.9c4,1.7,10.9,3.5,22.4,5c16.6,2.2,38.5,3.4,61.9,3.4
					c23.4,0,45.4-1.2,61.9-3.4c11.5-1.5,18.4-3.2,22.4-5C1135.3,762.2,1122.8,790.8,1112.2,805.5z"/>
				<path class="st5" d="M1129.7,716.4c-0.9,0-1.6,0.7-1.6,1.6c0,0.1,0,3.3-0.4,8.5c-23.4,11.1-49.5,16.1-75.3,14
					c-25.5-2.1-50.2-12.4-76-9.8c-0.7-7.5-0.7-12.4-0.7-12.6c0-0.9-0.7-1.6-1.6-1.6c-0.9,0-1.6,0.7-1.6,1.6
					c0,3.1,0.5,75.2,41.2,102.2c0,0,0,0,0,0c0,0,0,0,0,0c0,0,0,0,0,0c0.1,0.1,0.2,0.1,0.3,0.2c0,0,0.1,0,0.1,0c0,0,0,0,0.1,0
					c0.2,0,16.7,3.6,37.7,3.8c20.9-0.2,37.5-3.8,37.7-3.8c0,0,0,0,0.1,0c0,0,0.1,0,0.1,0c0.1,0,0.2-0.1,0.3-0.2c0,0,0,0,0,0
					c0,0,0,0,0,0c0,0,0,0,0,0c40.7-27,41.2-99.2,41.2-102.2C1131.4,717.2,1130.6,716.4,1129.7,716.4z M1088.6,817.4
					c-2.3,0.5-17.6,3.5-36.7,3.7c-19.1-0.2-34.4-3.2-36.7-3.7c-15.1-10.1-24.5-27.2-30.2-44.3c0.1,0,0.2,0,0.3-0.1
					c23.1-9.8,48.3-4.5,72.4-2.4c22.3,2,43.9-0.7,64.6-9.2C1117,782.1,1107.1,805,1088.6,817.4z M1123.1,757.7c-0.2,0-0.5,0-0.7,0.1
					c-23.6,10.2-47.7,11.4-73,8.7c-22-2.4-44.5-5.3-65.5,3.5c-4.2-13.3-6.2-26.4-7.3-36.2c27-2.6,52.8,8.6,79.5,10.1
					c24.5,1.4,49-3.6,71.2-13.8C1126.8,737.4,1125.5,747.2,1123.1,757.7z"/>
				<path class="st5" d="M1145.1,793.1c-3.6,2.7-8.1,3-12,0.8c-1.2-0.7-2.3,1.2-1.1,1.9c4.5,2.6,10,2.3,14.2-0.8
					C1147.3,794.1,1146.2,792.2,1145.1,793.1z"/>
				<path class="st5" d="M1161.2,729.8c4.3-0.8,8.6-0.2,12.5,1.8c1.2,0.6,2.3-1.2,1.1-1.9c-4.5-2.3-9.3-3-14.2-2
					C1159.3,727.9,1159.8,730,1161.2,729.8z"/>
				<path class="st5" d="M1177.5,743.8c0,1.4,2.2,1.4,2.2,0c0-3.1-0.6-6.1-1.7-9c-0.5-1.3-2.6-0.7-2.1,0.6
					C1176.9,738.1,1177.5,740.9,1177.5,743.8z"/>
				<path class="st5" d="M1030.6,672.2c14.8-16.9,32.9-40.1,25.9-63.2c3.9,5.8,6.6,12.2,6.7,19.7c0.1,13.9-7.1,26.3-14,37.9
					c-1.1,1.8,1.8,3.5,2.8,1.6c7.4-12.6,15.3-26.3,14.3-41.5c-0.8-13.4-9.3-23.5-18.1-32.8c-3.2-4.3-6.4-8.5-8.1-13.7
					c-2.3-7.3-1.3-15.4,1.5-22.4c5.7-14.7,19-24.7,31.1-33.9c1.7-1.2,0-4.1-1.6-2.8c-18.8,14.2-44.8,36.8-32.8,63.5
					c1.6,3.6,3.9,6.7,6.2,9.8c0.1,0.3,0.2,0.5,0.4,0.8c0.3,0.3,0.6,0.6,0.8,0.9c1.6,2.1,3.1,4.2,4.4,6.5c4.3,7.6,5.1,16.5,3.6,25
					c-3.1,16.7-14.7,29.9-25.6,42.3C1026.9,671.5,1029.2,673.8,1030.6,672.2z"/>
				<path class="st5" d="M1035.9,544.3c0.2,0.1,0.3,0.1,0.5,0.1c0.4,0,0.8-0.2,1-0.6c0-0.1,4.7-8.7,14-15c0.5-0.3,0.6-1,0.3-1.5
					c-0.3-0.5-1-0.6-1.5-0.3c-9.7,6.6-14.5,15.4-14.7,15.8C1035.2,543.3,1035.4,544,1035.9,544.3z"/>
				<path class="st5" d="M1071.7,645.9c5.1-11.8,4.7-24.8-1.4-36.1c-0.7-1.2-2.5-0.1-1.9,1.1c5.7,10.6,6.2,22.9,1.4,33.9
					C1069.3,646.1,1071.2,647.2,1071.7,645.9z"/>
			</g>
			<path class="st7" d="M1146.7,826.1c-8.9-5-45.3-3.3-45.3-3.3l-3.7,4.1c-4.5,2.7-7.5,3.5-7.8,3.6c-0.6,0.1-14,3-38,3
				c-24,0-37.3-2.8-37.9-3c-0.4-0.1-7.2-1.9-15.7-9.3c-10.5,2.4-13.4,4.8-13.4,5.9c0,3.7,23,10.5,67,10.5c15.1,0,27.8-0.8,37.8-2
				C1089.7,835.5,1158.3,832.7,1146.7,826.1z"/>
			<path class="st7" d="M979.1,707c13.8,2.8,39.1,5.2,72.8,5.2c33.7,0,59-2.5,72.8-5.2c-9.2-3.1-35.2-6.5-72.8-6.5
				C1014.3,700.5,988.3,703.9,979.1,707z"/>
			<path class="st7" d="M1138.5,724.4c0.2-0.6,0.4-1.2,0.7-1.7c0.6-0.8,1.7-1.2,2.7-1.3c2.1-0.2,4.2,0.5,5.7,1.9
				c0.4,3.6,0.8,7.3,1.2,10.9c0,0.4,0.1,0.9-0.1,1.2c-0.2,0.3-0.6,0.5-0.9,0.6c-2.9,0.9-6.2-0.5-8-3
				C1138.1,730.6,1137.8,727.3,1138.5,724.4z"/>
			<path class="st7" d="M1163.9,779.6c4.6-4.4,9.1-8.8,13.7-13.3c-2.4,10.5-8.7,20.1-17.4,26.5c-2.5,1.9-5.3,3.5-8,5.1
				c-3,1.8-6,3.5-9.4,4.4c-3.6,0.9-7.4,0.6-11-0.4c-2.7-0.8-5.3-2.2-7.1-4.3c-1.8-2.1-2.8-5.1-2.1-7.8c0.3-1.2,1-2.3,2-2.9
				c1.4-0.8,3.1-0.6,4.7-0.3c5.9,1.3,11.7,4.2,17.7,3.5C1153.7,789.2,1159.1,784.3,1163.9,779.6z"/>
			<path class="st11" d="M1015.2,817.4c0,0,84.2-10.5,110.6-74.1c0,0,1.4-1.2,1.4,2c0,3.1-7.5,54.8-38.2,73.5
				C1089.1,818.8,1059.9,829.4,1015.2,817.4z"/>
		</g>
	</g>
	<g>
		<g>
			<g>
				<path class="st14" d="M397.9,704.4c-51.3-23.8-113.8-24.2-165,0c7.9,3.6,37.8,8,82.5,8C360.1,712.4,390,708,397.9,704.4z"/>
				<g>
					<path class="st10" d="M329.4,685.2c-1.8,4.7-2.7,9.6-2.6,14.5c-2.6-3.7-5.7-7-9.2-9.8c1.3-1.9,2-4.1,1.9-6.4
						c-0.1-2.1-3.3-2.1-3.3,0c0,1.6-0.4,3.2-1.2,4.5c-3.2-2.3-6.7-4.2-10.4-5.7c-1.9-0.8-2.8,2.4-0.9,3.1c2.8,1.1,5.4,2.5,7.9,4.1
						c-5.3,0.7-10.4-0.4-15.1-3.2c-1.8-1.1-3.4,1.7-1.6,2.8c6.2,3.8,13.4,4.8,20.4,3c2.8,2.3,5.4,4.9,7.6,7.7
						c-4.4-2.7-9.2-4.7-14.4-5.6c-9.7-1.8-20.2,0.1-28.6-6.1c-1.7-1.2-3.3,1.6-1.6,2.8c6.4,4.7,14,5.2,21.7,5.7
						c10.6,0.7,19.7,3.7,27.7,10.9c0.1,0.1,0.1,0.1,0.2,0.1c0,0.1,0.1,0.1,0.1,0.2c0.9,1.8,3.5,0.4,2.9-1.4c0-0.1,0-0.1,0-0.2
						c-1.4-6.9-0.8-13.6,1.8-20.1C333.3,684.1,330.2,683.3,329.4,685.2z"/>
					<path class="st10" d="M298.8,702.2c-11.8,1-22.9-3.8-30.3-13.1c-1.3-1.6-3.6,0.7-2.3,2.3c7.9,9.9,20,15.1,32.6,14
						C300.9,705.3,300.9,702.1,298.8,702.2z"/>
					<path class="st10" d="M274.5,703.9c-7.5-0.8-14-4.9-18.2-11c-1.2-1.7-4-0.1-2.8,1.6c4.9,7.2,12.4,11.7,21,12.7
						C276.6,707.4,276.6,704.1,274.5,703.9z"/>
					<path class="st10" d="M340.5,685.8c1.4,4.3,0.5,8.9-2.6,12.3c-1.4,1.5,0.9,3.9,2.3,2.3c3.8-4.2,5.2-10,3.4-15.4
						C343,682.9,339.9,683.8,340.5,685.8z"/>
					<path class="st10" d="M364.1,690.7c-0.2-2.1-3.5-2.1-3.3,0c0.5,4.7-2.5,8.9-7.4,9.2c-2.1,0.2-2.1,3.4,0,3.3
						C360,702.7,364.9,697.3,364.1,690.7z"/>
				</g>
				<path class="st3" d="M371.9,818.6c9.3,2.3,13.8,5.1,13.8,8.6c0,10.1-42,13.7-70.2,13.7c-28.2,0-70.2-3.7-70.2-13.7
					c0-3.4,4.5-6.3,13.8-8.6c-1.4-1.4-2.9-3-4.4-4.8c-38.2,4.8-48.4,12.5-48.4,15.9c0,2.6,6.4,8.2,30.6,12.9
					c21,4.1,48.9,6.4,78.6,6.4c29.7,0,57.7-2.3,78.6-6.4c24.2-4.7,30.6-10.3,30.6-12.9c0-3.4-10.2-11.1-48.4-15.9
					C374.8,815.6,373.3,817.2,371.9,818.6z"/>
				<path class="st3" d="M315.4,837.7c44,0,67-6.8,67-10.5c0-1-2.9-3.5-13.4-5.9c-8.5,7.4-15.2,9.2-15.6,9.3c-0.6,0.1-14,3-38,3
					c-24,0-37.3-2.8-37.9-3c-0.4-0.1-7.2-1.9-15.7-9.3c-10.5,2.4-13.4,4.8-13.4,5.9C248.5,830.8,271.5,837.7,315.4,837.7z"/>
				<path class="st3" d="M415.5,732.9c5.5-0.7,11.8-1.5,16.2,2.1c2.7,2.2,4.2,5.7,4.5,10.6c1.3,18.7-14.5,40.7-28.3,45.6
					c-2.1,0.7-4.2,1.1-6.1,1.1c-3.9,0-7.4-1.5-10.3-4.4c-0.8,1.9-1.6,3.8-2.5,5.6c4.8,6.1,11.3,7.8,19.3,4.9
					c17.8-6.4,39-35.9,37.4-59.8c-0.4-5.3-1.7-8.8-4.2-10.9c-4.1-3.3-11.2-2.5-18.2-1.6c-6.6,0.8-13.9,1.7-18.8-1.5
					c-0.1,2-0.3,4-0.4,5.9c0.1,0.2,0.2,0.3,0.3,0.5C405.7,733.9,409.5,733.6,415.5,732.9z M409.8,795.1c-4.2,3.1-9.7,3.4-14.2,0.8
					c-1.2-0.7-0.1-2.6,1.1-1.9c3.9,2.2,8.4,1.9,12-0.8C409.8,792.4,410.9,794.2,409.8,795.1z M441.6,734.9c1.1,2.9,1.6,5.9,1.7,9
					c0,1.4-2.2,1.4-2.2,0c0-2.9-0.6-5.7-1.6-8.4C439,734.2,441.1,733.6,441.6,734.9z M424.2,727.8c4.9-0.9,9.7-0.3,14.2,2
					c1.2,0.6,0.1,2.5-1.1,1.9c-3.9-2-8.2-2.6-12.5-1.8C423.4,730.1,422.8,728,424.2,727.8z"/>
				<path class="st15" d="M385.7,758.9c-14.2-3.7-27.4,2.8-40.3,7.7c-11.6,4.4-23.6,7.7-36,9.2c-22.2,2.7-45.3-1.1-64.1-13.5
					c5.3,20.5,15.1,42.9,33.4,55.1c2.3,0.5,17.6,3.5,36.7,3.7c19-0.2,34.4-3.2,36.7-3.7c19.4-13,29.2-37.3,34.3-58.6
					C386.2,759,385.9,759,385.7,758.9z"/>
				<path class="st14" d="M317.8,749.7c-12.9-2-25.2-6-37.7-9.7c-13-3.8-26.3-4.6-39.7-4.7c0.7,6.4,1.9,14.2,3.8,22.5c0,0,0,0,0,0
					c21.1,15.2,47.7,18.4,72.8,13.7c12.7-2.4,24.5-6.9,36.5-11.5c10.6-4.1,21.6-7.1,33-4.2c0.2,0.1,0.4,0.1,0.5,0.2
					c1.4-6.5,2.4-12.7,3.1-18.1C366.7,746.2,343,753.6,317.8,749.7z"/>
				<path class="st3" d="M377.3,714.4c-16.6,2.2-38.5,3.4-61.9,3.4c-23.4,0-45.4-1.2-61.9-3.4c-11.5-1.5-18.4-3.2-22.4-5
					c1.7,103.2,47.2,115.8,47.6,115.9c0,0,13.3,2.8,36.7,2.8s36.6-2.8,36.7-2.8c0,0,11.9-3.3,23.6-19.6c10.6-14.8,23.1-43.3,24-96.2
					C395.7,711.2,388.9,712.9,377.3,714.4z M353.7,820.4C353.7,820.4,353.7,820.4,353.7,820.4C353.7,820.4,353.7,820.4,353.7,820.4
					C353.7,820.4,353.6,820.5,353.7,820.4c-0.2,0.1-0.3,0.2-0.4,0.2c0,0-0.1,0-0.1,0c0,0,0,0-0.1,0c-0.2,0-16.7,3.6-37.7,3.8
					c-21-0.2-37.5-3.8-37.7-3.8c0,0,0,0-0.1,0c0,0-0.1,0-0.1,0c-0.1,0-0.2-0.1-0.3-0.2c0,0,0,0,0,0c0,0,0,0,0,0c0,0,0,0,0,0
					c-40.7-27-41.2-99.2-41.2-102.2c0-0.9,0.7-1.6,1.6-1.6c0.9,0,1.6,0.7,1.6,1.6c0,0.2,0,5.6,0.8,13.8c12.1,0.1,24.2,0.6,35.9,3.5
					c12.4,3.1,24.3,7.5,36.8,10c27.3,5.5,52.3-2.1,77.8-11.1c1-9.6,1.1-15.9,1.1-16.1c0-0.9,0.7-1.6,1.6-1.6c0.9,0,1.6,0.7,1.6,1.6
					C394.9,721.2,394.5,793.4,353.7,820.4z"/>
				<path class="st5" d="M401.3,805.2c2.8,0,5.8-0.6,9-1.7c20-7.2,42.8-38.7,40.9-65.3c-0.5-6.9-2.5-11.7-6.2-14.7
					c-5.9-4.8-14.2-3.8-22.3-2.8c-9.3,1.2-15.2,1.5-17.3-3.3c-0.1-0.2-0.2-0.4-0.4-0.6c0.2-4.3,0.2-8.7,0.2-13.2
					c0.2-1-0.2-1.9-1.3-2.5c-0.1,0-0.1-0.1-0.2-0.1c-0.1,0-0.1-0.1-0.2-0.1c-54.6-26.5-121.6-26.9-176.1,0c-0.1,0-0.1,0.1-0.2,0.1
					c-0.1,0-0.1,0.1-0.2,0.1c-0.1,0-0.1,0.1-0.1,0.1l0,0c-1,0.6-1.3,1.5-1.2,2.4c0,46.6,8.4,82,25.1,105.2
					c-23.8,3.2-49.9,9.3-49.9,20.9c0,18.1,68.6,24.7,114.7,24.7c46.1,0,114.7-6.6,114.7-24.7c0-11.5-26.2-17.7-49.9-20.9
					c2.3-3.1,4.4-6.5,6.3-10.1C390.5,803,395.6,805.2,401.3,805.2z M404.6,724.7c4.9,3.2,12.2,2.3,18.8,1.5
					c6.9-0.9,14.1-1.8,18.2,1.6c2.5,2,3.8,5.6,4.2,10.9c1.7,24-19.5,53.4-37.4,59.8c-8,2.9-14.4,1.2-19.3-4.9
					c0.9-1.8,1.7-3.7,2.5-5.6c2.9,2.9,6.4,4.4,10.3,4.4c1.9,0,4-0.4,6.1-1.1c13.8-4.9,29.5-26.9,28.3-45.6
					c-0.3-4.9-1.8-8.4-4.5-10.6c-4.4-3.6-10.6-2.8-16.2-2.1c-6.1,0.7-9.9,1-11.1-1.7c-0.1-0.2-0.2-0.4-0.3-0.5
					C404.3,728.7,404.5,726.7,404.6,724.7z M403.5,737.6c3.5,1.8,8.3,1.2,12.7,0.6c4.7-0.6,9.5-1.2,12.1,0.9
					c1.5,1.2,2.3,3.5,2.6,6.8c1.1,16.2-12.9,35.9-24.7,40.1c-5.1,1.8-9.1,0.6-12.1-3.7c-0.1-0.1-0.1-0.2-0.2-0.2
					C398.5,769.3,401.7,754.4,403.5,737.6z M397.9,704.4c-8,3.6-37.8,8-82.5,8c-44.7,0-74.6-4.4-82.5-8
					C284.1,680.2,346.6,680.6,397.9,704.4z M424.6,829.7c0,2.6-6.4,8.2-30.6,12.9c-21,4.1-48.9,6.4-78.6,6.4
					c-29.7,0-57.7-2.3-78.6-6.4c-24.2-4.7-30.6-10.3-30.6-12.9c0-3.4,10.2-11.1,48.4-15.9c1.5,1.8,3,3.4,4.4,4.8
					c-9.2,2.3-13.8,5.1-13.8,8.6c0,10.1,42,13.7,70.2,13.7c28.2,0,70.2-3.7,70.2-13.7c0-3.4-4.5-6.3-13.8-8.6c1.4-1.4,2.9-3,4.4-4.8
					C414.5,818.6,424.6,826.3,424.6,829.7z M261.8,821.3c8.5,7.4,15.2,9.2,15.7,9.3c0.6,0.1,13.9,3,37.9,3c24,0,37.3-2.8,38-3
					c0.4-0.1,7.1-1.9,15.6-9.3c10.5,2.4,13.4,4.9,13.4,5.9c0,3.7-23,10.5-67,10.5s-67-6.8-67-10.5
					C248.5,826.1,251.4,823.6,261.8,821.3z M375.8,805.7c-11.7,16.4-23.6,19.6-23.6,19.6c-0.1,0-13.4,2.8-36.7,2.8
					s-36.6-2.8-36.7-2.8c-0.5-0.1-46-12.7-47.6-115.9c4,1.7,10.9,3.5,22.4,5c16.6,2.2,38.5,3.4,61.9,3.4c23.4,0,45.4-1.2,61.9-3.4
					c11.5-1.5,18.4-3.2,22.4-5C398.8,762.3,386.3,790.9,375.8,805.7z"/>
				<path class="st5" d="M393.3,716.5c-0.9,0-1.6,0.7-1.6,1.6c0,0.2,0,6.6-1.1,16.1c-25.5,9-50.5,16.6-77.8,11.1
					c-12.5-2.5-24.4-6.9-36.8-10c-11.8-2.9-23.9-3.4-35.9-3.5c-0.8-8.2-0.8-13.6-0.8-13.8c0-0.9-0.7-1.6-1.6-1.6
					c-0.9,0-1.6,0.7-1.6,1.6c0,3.1,0.5,75.2,41.2,102.2c0,0,0,0,0,0c0,0,0,0,0,0c0,0,0,0,0,0c0.1,0.1,0.2,0.1,0.3,0.2
					c0,0,0.1,0,0.1,0c0,0,0,0,0.1,0c0.2,0,16.7,3.6,37.7,3.8c20.9-0.2,37.5-3.8,37.7-3.8c0,0,0,0,0.1,0c0,0,0.1,0,0.1,0
					c0.1,0,0.2-0.1,0.3-0.2c0,0,0,0,0,0c0,0,0,0,0,0c0,0,0,0,0,0c40.7-27,41.2-99.2,41.2-102.2C394.9,717.3,394.2,716.5,393.3,716.5
					z M352.1,817.6c-2.3,0.5-17.6,3.5-36.7,3.7c-19.1-0.2-34.4-3.2-36.7-3.7c-18.3-12.2-28.1-34.7-33.4-55.1
					c18.8,12.4,41.9,16.2,64.1,13.5c12.3-1.5,24.4-4.8,36-9.2c12.9-4.9,26.1-11.4,40.3-7.7c0.3,0.1,0.5,0.1,0.7,0
					C381.4,780.3,371.5,804.6,352.1,817.6z M387.1,756c-0.1-0.1-0.3-0.2-0.5-0.2c-11.3-2.9-22.3,0.1-33,4.2
					c-12,4.6-23.8,9.1-36.5,11.5c-25.1,4.7-51.8,1.5-72.8-13.7c0,0,0,0,0,0c-1.9-8.3-3.1-16-3.8-22.5c13.4,0.1,26.7,0.9,39.7,4.7
					c12.5,3.7,24.8,7.7,37.7,9.7c25.2,3.9,48.9-3.5,72.4-11.7C389.5,743.3,388.5,749.5,387.1,756z"/>
				<path class="st5" d="M408.7,793.2c-3.6,2.7-8.1,3-12,0.8c-1.2-0.7-2.3,1.2-1.1,1.9c4.5,2.6,10,2.3,14.2-0.8
					C410.9,794.2,409.8,792.4,408.7,793.2z"/>
				<path class="st5" d="M424.8,729.9c4.3-0.8,8.6-0.2,12.5,1.8c1.2,0.6,2.3-1.2,1.1-1.9c-4.5-2.3-9.3-3-14.2-2
					C422.8,728,423.4,730.1,424.8,729.9z"/>
				<path class="st5" d="M441,743.9c0,1.4,2.2,1.4,2.2,0c0-3.1-0.6-6.1-1.7-9c-0.5-1.3-2.6-0.7-2.1,0.6
					C440.5,738.2,441,741,441,743.9z"/>
				<path class="st5" d="M294.1,672.3c14.8-16.9,32.9-40.1,25.9-63.2c3.9,5.8,6.6,12.2,6.7,19.7c0.1,13.9-7.1,26.3-14,37.9
					c-1.1,1.8,1.8,3.5,2.8,1.6c7.4-12.6,15.3-26.3,14.3-41.5c-0.8-13.4-9.3-23.5-18.1-32.8c-3.2-4.3-6.4-8.5-8.1-13.7
					c-2.3-7.3-1.3-15.4,1.5-22.4c5.7-14.7,19-24.7,31.1-33.9c1.7-1.2,0-4.1-1.6-2.8C316,535.5,290,558.2,302,584.9
					c1.6,3.6,3.9,6.7,6.2,9.8c0.1,0.3,0.2,0.5,0.4,0.8c0.3,0.3,0.6,0.6,0.8,0.9c1.6,2.1,3.1,4.2,4.4,6.5c4.3,7.6,5.1,16.5,3.6,25
					c-3.1,16.7-14.7,29.9-25.6,42.3C290.4,671.6,292.7,673.9,294.1,672.3z"/>
				<path class="st5" d="M299.5,544.4c0.2,0.1,0.3,0.1,0.5,0.1c0.4,0,0.8-0.2,1-0.6c0-0.1,4.7-8.7,14-15c0.5-0.3,0.6-1,0.3-1.5
					c-0.3-0.5-1-0.6-1.5-0.3c-9.7,6.6-14.5,15.4-14.7,15.8C298.7,543.5,298.9,544.1,299.5,544.4z"/>
				<path class="st5" d="M335.3,646.1c5.1-11.8,4.7-24.8-1.4-36.1c-0.7-1.2-2.5-0.1-1.9,1.1c5.7,10.6,6.2,22.9,1.4,33.9
					C332.9,646.2,334.8,647.3,335.3,646.1z"/>
			</g>
			<g>
				<path d="M205.1,913.2c0-8.6,6.3-15.5,18.1-15.5c1,0,1.7,0,2.5,0.1c0.8,0.1,1.7,0.2,2.3,0.4c-0.1,2-0.1,3.6-0.2,6.5h-0.1
					c-0.5-0.1-0.9-0.2-1.6-0.3c-0.8-0.1-1.8-0.2-2.8-0.2c-6.4,0-10.4,3.6-10.4,9.1c0,5.6,3.7,9.3,9.7,9.3c1.3,0,2.3,0,3.4-0.2
					c0.6-0.1,1.1-0.2,1.8-0.4h0.1c0,1.3,0.2,5,0.2,6.3c-0.5,0.2-1.7,0.4-2.5,0.5c-1.5,0.2-2.4,0.2-3.7,0.2
					C212.2,929,205.1,922.9,205.1,913.2L205.1,913.2z"/>
				<path d="M238.6,924.2c-0.9,2.3-1.6,4-1.8,4.3v0.1h-3.6h-3.8v-0.1c0.1-0.3,0.9-2,6.1-13.6l7.7-17.3h1l7.6,17.3
					c5.1,11.6,5.8,13.3,5.9,13.6v0.1h-3.8h-4.4v-0.1c-0.1-0.3-0.8-2-1.7-4.3H238.6z M245.8,918.4L245.8,918.4
					c-1.6-4-2.2-5.8-2.4-6.8h0c-0.3,1-0.9,2.8-2.5,6.8v0.1H245.8z"/>
				<path d="M267.7,911h4.5h3.3h0.2v2.9v3.2h-0.2h-3.2h-4.5v1.1v10.2v0.1h-3.6h-3.7v-0.2v-13.5v-3.9v-12.6V898h8.4h7.8v6.1h-0.2
					h-4.7h-4.1V911z"/>
				<path d="M281.3,910.9v-12.8V898h8.5h7.7v6.1h-0.1h-4.7h-4.2v6h4.5h3.3h0.1v2.9v3.1h-0.1h-3.2h-4.6v5.5v0.8h6.2h3h0.1v6.1h-7.4
					h-9v-0.1v-13.6V910.9z"/>
				<path d="M313.9,910.9v-12.7V898h3.8h3.5v0.2v12.7v3.9v7.4c0,0.2,0,0.2,0.2,0.2h5.8h1.7h1.2h0.2v6.1h-7.4h-8.8v-0.2v-13.5V910.9z
					"/>
				<path d="M340.8,924.2c-0.9,2.3-1.6,4-1.8,4.3v0.1h-3.6h-3.8v-0.1c0.1-0.3,0.9-2,6.1-13.6l7.7-17.3h1l7.6,17.3
					c5.1,11.6,5.8,13.3,5.9,13.6v0.1h-3.8h-4.4v-0.1c-0.1-0.3-0.8-2-1.7-4.3H340.8z M348,918.4L348,918.4c-1.6-4-2.2-5.8-2.4-6.8h0
					c-0.3,1-0.9,2.8-2.5,6.8v0.1H348z"/>
				<path d="M365.4,904.1h-5.2h-2.4h-0.2V898h9.2h4.1h9.6v6.1h-0.2H378h-5.4v10.7v13.6v0.1H369h-3.6v-0.1v-13.6V904.1z"/>
				<path d="M389.9,904.1h-5.2h-2.4H382V898h9.2h4.1h9.6v6.1h-0.2h-2.3h-5.4v10.7v13.6v0.1h-3.6h-3.6v-0.1v-13.6V904.1z"/>
				<path d="M408.6,910.9v-12.8V898h8.5h7.7v6.1h-0.1H420h-4.2v6h4.5h3.3h0.1v2.9v3.1h-0.1h-3.2h-4.6v5.5v0.8h6.2h3h0.1v6.1h-7.4h-9
					v-0.1v-13.6V910.9z"/>
			</g>
			<path class="st7" d="M410.2,826.2c-8.9-5-45.3-3.3-45.3-3.3l-3.7,4.1c-4.5,2.7-7.5,3.5-7.8,3.6c-0.6,0.1-14,3-38,3
				s-37.3-2.8-37.9-3c-0.4-0.1-7.2-1.9-15.7-9.3c-10.5,2.4-13.4,4.8-13.4,5.9c0,3.7,23,10.5,67,10.5c15.1,0,27.8-0.8,37.8-2
				C353.3,835.7,421.9,832.8,410.2,826.2z"/>
			<path class="st7" d="M402.1,724.5c0.2-0.6,0.4-1.2,0.7-1.7c0.6-0.8,1.7-1.2,2.7-1.3c2.1-0.2,4.2,0.5,5.7,1.9
				c0.4,3.6,0.8,7.3,1.2,10.9c0,0.4,0.1,0.9-0.1,1.2c-0.2,0.3-0.6,0.5-0.9,0.6c-2.9,0.9-6.2-0.5-8-3
				C401.7,730.7,401.3,727.4,402.1,724.5z"/>
			<path class="st7" d="M427.5,779.7c4.6-4.4,9.1-8.8,13.7-13.3c-2.4,10.5-8.7,20.1-17.4,26.5c-2.5,1.9-5.3,3.5-8,5.1
				c-3,1.8-6,3.5-9.4,4.4c-3.6,0.9-7.4,0.6-11-0.4c-2.7-0.8-5.3-2.2-7.1-4.3c-1.8-2.1-2.8-5.1-2.1-7.8c0.3-1.2,1-2.3,2-2.9
				c1.4-0.8,3.1-0.6,4.7-0.3c5.9,1.3,11.7,4.2,17.7,3.5C417.3,789.3,422.6,784.4,427.5,779.7z"/>
			<path class="st11" d="M278.8,817.6c0,0,84.6-10.3,110.8-78.4c0,0,1.6-0.2,0,8.8c-1.6,9-9.9,49.6-37,71.2
				C352.6,819.2,309.9,828.8,278.8,817.6z"/>
			<path class="st11" d="M287,711.8c0,0,99.4-3.7,88.2-18.2c0,0,24.7,7.6,26.5,11.6C401.7,705.2,358.2,722,287,711.8z"/>
		</g>
	</g>
	<g>
		<g>
			<g>
				<path d="M576.6,897.8h0.9c9,14,10.4,16.5,11.7,18.9h0.1c1.2-2.3,2.6-4.8,11.9-18.9h0.9l2.5,17.1c1.7,11.6,2,13.4,2,13.6v0.1
					h-3.6h-3.8v-0.1c0-0.2-0.4-2.4-1.1-7.6c-0.2-1.5-0.5-3.9-0.6-6.2h0c-1.1,2.4-1.8,3.6-2.7,5.2c-1,1.7-2.9,4.7-5.3,8.4h-0.9
					c-2.6-3.8-4.5-6.8-5.5-8.6c-0.9-1.5-1.6-2.9-2.6-5h0c-0.1,2.4-0.4,4.8-0.6,6.3c-0.6,5.2-0.9,7.3-0.9,7.6v0.1h-3.7h-3.3v-0.1
					c0.1-0.3,0.4-2,2.2-13.6L576.6,897.8z"/>
				<path d="M617.6,924.2c-0.9,2.3-1.6,4-1.8,4.3v0.1h-3.6h-3.8v-0.1c0.1-0.3,0.9-2,6.1-13.6l7.7-17.3h1l7.6,17.3
					c5.1,11.6,5.8,13.3,5.9,13.6v0.1h-3.8h-4.4v-0.1c-0.1-0.3-0.8-2-1.7-4.3H617.6z M624.7,918.4L624.7,918.4
					c-1.6-4-2.2-5.8-2.4-6.8h0c-0.3,1-0.9,2.8-2.5,6.8v0.1H624.7z"/>
				<path d="M636.5,913.2c0-8.6,6.3-15.5,18.1-15.5c1,0,1.7,0,2.5,0.1c0.8,0.1,1.7,0.2,2.3,0.4c-0.1,2-0.1,3.6-0.2,6.5H659
					c-0.5-0.1-0.9-0.2-1.6-0.3c-0.8-0.1-1.8-0.2-2.8-0.2c-6.4,0-10.4,3.6-10.4,9.1c0,5.6,3.7,9.3,9.7,9.3c1.3,0,2.3,0,3.4-0.2
					c0.6-0.1,1.1-0.2,1.8-0.4h0.1c0,1.3,0.2,5,0.2,6.3c-0.5,0.2-1.7,0.4-2.5,0.5c-1.5,0.2-2.4,0.2-3.7,0.2
					C643.6,929,636.5,922.9,636.5,913.2L636.5,913.2z"/>
				<path d="M661.3,913.2c0-8.6,6.3-15.5,18.1-15.5c1,0,1.7,0,2.5,0.1c0.8,0.1,1.7,0.2,2.3,0.4c-0.1,2-0.1,3.6-0.2,6.5h-0.1
					c-0.5-0.1-0.9-0.2-1.6-0.3c-0.8-0.1-1.8-0.2-2.8-0.2c-6.4,0-10.4,3.6-10.4,9.1c0,5.6,3.7,9.3,9.7,9.3c1.3,0,2.3,0,3.4-0.2
					c0.6-0.1,1.1-0.2,1.8-0.4h0.1c0,1.3,0.2,5,0.2,6.3c-0.5,0.2-1.7,0.4-2.5,0.5c-1.5,0.2-2.4,0.2-3.7,0.2
					C668.5,929,661.3,922.9,661.3,913.2L661.3,913.2z"/>
				<path d="M714.9,914.8v13.6v0.1h-3.5h-3.7v-0.1v-11.1v-1.1h-11.5v1.1v11.1v0.1h-3.6h-3.7v-0.1v-13.6v-3.9v-12.8V898h3.6h3.6v0.1
					V909v1.1h11.5V909v-10.9V898h3.8h3.4v0.1v12.8V914.8z"/>
				<path d="M727.9,914.8v13.6v0.1h-3.5h-3.8v-0.1v-13.6v-3.9v-12.7V898h3.6h3.6v0.1v12.8V914.8z"/>
				<path d="M739.5,924.2c-0.9,2.3-1.6,4-1.8,4.3v0.1h-3.6h-3.8v-0.1c0.1-0.3,0.9-2,6.1-13.6l7.7-17.3h1l7.6,17.3
					c5.1,11.6,5.8,13.3,5.9,13.6v0.1h-3.8h-4.4v-0.1c-0.1-0.3-0.8-2-1.7-4.3H739.5z M746.6,918.4L746.6,918.4
					c-1.6-4-2.2-5.8-2.4-6.8h0c-0.3,1-0.9,2.8-2.5,6.8v0.1H746.6z"/>
				<path d="M764,904.1h-5.2h-2.4h-0.2V898h9.2h4.1h9.6v6.1h-0.2h-2.3h-5.4v10.7v13.6v0.1h-3.6H764v-0.1v-13.6V904.1z"/>
				<path d="M811.7,913.1c0,9-6.8,15.9-16,15.9c-9.1,0-16-6.9-16-15.7c0-8.8,7-15.7,16.3-15.7C805.1,897.6,811.7,904.3,811.7,913.1
					L811.7,913.1z M804.3,913.2c0-5-3.6-9-8.5-9c-5.1,0-8.8,3.8-8.8,9c0,5.1,3.6,9,8.8,9C801,922.4,804.3,918.4,804.3,913.2
					L804.3,913.2z"/>
			</g>
			<g>
				<path class="st8" d="M774.6,704.4c-51.3-23.8-113.8-24.2-165,0c7.9,3.6,37.8,8,82.5,8C736.7,712.4,766.6,708,774.6,704.4z"/>
				<g>
					<path class="st10" d="M695.7,714c-0.2,0-0.3,0-0.5,0c-3-0.3-4.9-3-5.9-4.5l-10.5-15.3c-1.5-2.2-3.3-4.7-5.7-6
						c-2-1-4.9-0.9-6.1,0.9c-1.2,1.8-0.2,4.5,1.3,6.3c0.7,0.9,1.6,1.8,2.5,2.7c1.2,1.2,2.5,2.5,3.6,4c2,3,2.6,7.6-0.3,10.3
						c-2.1,1.9-5.5,2.1-8.4,0.6c-2.4-1.3-4-3.4-5.5-5.2l-9.7-12.3c-1-1.2-2-2.5-3.2-3.2c-0.9-0.5-2.3-0.7-3,0
						c-0.4,0.3-0.5,0.7-0.6,1.2c-0.1,1.3,0.9,3.4,2.5,5.1c3.9,4.3,4.9,7.9,3,10.7c-0.8,1.2-2,1.9-3.5,2.1c-3.5,0.6-7.1-1.8-8.2-2.6
						c-5-3.6-9.5-7.9-13.5-12.7c-0.6-0.7-0.5-1.7,0.2-2.3c0.7-0.6,1.7-0.5,2.3,0.2c3.8,4.6,8.1,8.6,12.9,12.1c2,1.4,4.3,2.2,5.7,2
						c0.6-0.1,1-0.4,1.3-0.8c1.2-1.7-0.8-4.5-2.7-6.6c-0.8-0.9-3.5-4.1-3.3-7.4c0.1-1.4,0.6-2.6,1.7-3.5c2-1.7,4.8-1.5,6.7-0.4
						c1.9,1,3.1,2.6,4.2,4l9.7,12.3c1.3,1.7,2.7,3.4,4.5,4.4c1.4,0.8,3.5,1,4.7-0.1c1.5-1.3,1-4.2-0.2-6c-0.8-1.2-1.9-2.3-3.1-3.5
						c-1-0.9-1.9-1.9-2.8-3c-2-2.5-3.6-6.7-1.5-10.1c2.2-3.4,7.1-3.7,10.3-2c3.1,1.6,5.2,4.6,6.9,7l10.5,15.3c1,1.4,2.2,3,3.5,3.1
						c0.7,0.1,1.3-0.2,1.8-0.9c0.9-1.2,1.2-3.2,0.6-4.6c-0.8-1.9-2.3-3.4-3.9-5.1c-0.8-0.8-1.7-1.7-2.4-2.7c-2.8-3.4-4-8.5-1-11.7
						c2.4-2.6,6.5-2.4,9.3-1c2.7,1.4,4.5,3.8,6.1,6l9.4,12.4c1.4,1.9,3.1,4,5.2,5c1.7,0.8,4.2,0.6,5.1-1c0.9-1.6-0.1-3.9-1.5-5.4
						c-0.7-0.7-1.4-1.4-2.2-2.1c-1.3-1.1-2.6-2.3-3.6-3.8c-2-2.9-2.2-7.3,0.8-9.5c1.9-1.4,4.6-1.3,7,0.1c1.9,1.1,3.2,2.8,4.3,4.3
						l10.4,13.7c1.2,1.6,2.6,3.4,4.3,4.1c1.3,0.6,3.3,0.3,3.8-0.9c0.6-1.4-0.8-3.4-2.2-5.1c-2.8-3.3-3.5-6.5-1.9-8.8
						c0.7-1.1,1.9-1.8,3.3-2.1c1.8-0.3,3.8,0.2,5.2,1.4c1.8,1.4,2.8,3.3,3.8,5.2c0.2,0.3,0.4,0.7,0.6,1c1.3,2.3,2.5,3.5,3.9,3.8
						c0.9,0.2,1.4,1.1,1.2,1.9c-0.2,0.9-1.1,1.4-1.9,1.2c-2.3-0.5-4.3-2.3-6-5.4c-0.2-0.4-0.4-0.7-0.6-1.1c-0.9-1.6-1.7-3.2-2.9-4.1
						c-0.7-0.6-1.8-0.9-2.7-0.7c-0.5,0.1-0.9,0.3-1.2,0.7c-1,1.4,0.9,3.9,1.7,4.9c1.4,1.6,4.2,5,2.7,8.5c-1.3,3.1-5.3,3.8-8.1,2.6
						c-2.6-1.1-4.3-3.3-5.6-5.2l-10.4-13.7c-1-1.3-2-2.7-3.4-3.5c-1-0.6-2.5-0.9-3.4-0.2c-1.3,0.9-1.1,3.4,0,5
						c0.8,1.2,1.9,2.1,3.1,3.2c0.8,0.7,1.7,1.5,2.5,2.3c2,2.2,3.8,6,1.9,9.2c-1.8,3.2-6.2,3.7-9.3,2.3c-2.9-1.3-4.8-3.9-6.4-6
						l-9.4-12.4c-1.4-1.9-3-4-5.1-5c-1.6-0.9-4.1-1-5.4,0.3c-1.7,1.8-0.7,5.2,1.2,7.4c0.7,0.8,1.4,1.6,2.2,2.4
						c1.8,1.8,3.6,3.7,4.6,6.2c1,2.5,0.5,5.6-1.1,7.8C698.8,713.2,697.3,714,695.7,714z"/>
				</g>
				<path class="st9" d="M686.2,767.8c-20.8,2.8-43.8,10-63.1-1.3c5.5,19.3,15.2,39.6,32.3,51c2.3,0.5,17.6,3.5,36.7,3.7
					c19-0.2,34.4-3.2,36.7-3.7c15.1-10.1,24.4-27.1,30.2-44.2C735.5,766.5,710.4,764.6,686.2,767.8z"/>
				<path class="st3" d="M748.5,818.6c9.3,2.3,13.8,5.1,13.8,8.6c0,10.1-42,13.7-70.2,13.7c-28.2,0-70.2-3.7-70.2-13.7
					c0-3.4,4.5-6.3,13.8-8.6c-1.4-1.4-2.9-3-4.4-4.8c-38.2,4.8-48.4,12.5-48.4,15.9c0,2.6,6.4,8.2,30.6,12.9
					c21,4.1,48.9,6.4,78.6,6.4s57.7-2.3,78.6-6.4c24.2-4.7,30.6-10.3,30.6-12.9c0-3.4-10.2-11.1-48.4-15.9
					C751.4,815.6,750,817.2,748.5,818.6z"/>
				<path class="st3" d="M692.1,837.7c44,0,67-6.8,67-10.5c0-1-2.9-3.5-13.4-5.9c-8.5,7.4-15.2,9.2-15.6,9.3c-0.6,0.1-14,3-38,3
					c-24,0-37.3-2.8-37.9-3c-0.4-0.1-7.2-1.9-15.7-9.3c-10.5,2.4-13.4,4.8-13.4,5.9C625.1,830.8,648.1,837.7,692.1,837.7z"/>
				<path class="st3" d="M792.2,732.9c5.5-0.7,11.8-1.5,16.2,2.1c2.7,2.2,4.2,5.7,4.5,10.6c1.3,18.7-14.5,40.7-28.3,45.6
					c-2.1,0.7-4.2,1.1-6.1,1.1c-3.9,0-7.4-1.5-10.3-4.4c-0.8,1.9-1.6,3.8-2.5,5.6c4.8,6.1,11.3,7.8,19.3,4.9
					c17.8-6.4,39-35.9,37.4-59.8c-0.4-5.3-1.7-8.8-4.2-10.9c-4.1-3.3-11.2-2.5-18.2-1.6c-6.6,0.8-13.9,1.7-18.8-1.5
					c-0.1,2-0.3,4-0.4,5.9c0.1,0.2,0.2,0.3,0.3,0.5C782.3,733.9,786.1,733.6,792.2,732.9z M786.4,795.1c-4.2,3.1-9.7,3.4-14.2,0.8
					c-1.2-0.7-0.1-2.6,1.1-1.9c3.9,2.2,8.4,1.9,12-0.8C786.4,792.4,787.5,794.2,786.4,795.1z M818.2,734.9c1.1,2.9,1.6,5.9,1.7,9
					c0,1.4-2.2,1.4-2.2,0c0-2.9-0.6-5.7-1.6-8.4C815.6,734.2,817.7,733.6,818.2,734.9z M800.8,727.8c4.9-0.9,9.7-0.3,14.2,2
					c1.2,0.6,0.1,2.5-1.1,1.9c-3.9-2-8.2-2.6-12.5-1.8C800,730.1,799.5,728,800.8,727.8z"/>
				<path class="st3" d="M754,714.4c-16.6,2.2-38.5,3.4-61.9,3.4c-23.4,0-45.4-1.2-61.9-3.4c-11.5-1.5-18.4-3.2-22.4-5
					c1.7,103.2,47.2,115.8,47.6,115.9c0,0,13.3,2.8,36.7,2.8c23.4,0,36.6-2.8,36.7-2.8c0,0,11.9-3.3,23.6-19.6
					c10.6-14.8,23.1-43.3,24-96.2C772.3,711.2,765.5,712.9,754,714.4z M730.4,820.4C730.4,820.4,730.3,820.4,730.4,820.4
					C730.3,820.4,730.3,820.4,730.4,820.4C730.3,820.4,730.3,820.5,730.4,820.4c-0.2,0.1-0.3,0.2-0.4,0.2c0,0-0.1,0-0.1,0
					c0,0,0,0-0.1,0c-0.2,0-16.7,3.6-37.7,3.8c-21-0.2-37.5-3.8-37.7-3.8c0,0,0,0-0.1,0c0,0-0.1,0-0.1,0c-0.1,0-0.2-0.1-0.3-0.2
					c0,0,0,0,0,0c0,0,0,0,0,0c0,0,0,0,0,0c-40.7-27-41.2-99.2-41.2-102.2c0-0.9,0.7-1.6,1.6-1.6c0.9,0,1.6,0.7,1.6,1.6
					c0,0.3,0.1,10.2,2.1,23.9c21.4-11.9,46.5-9.5,70-6.2c26.6,3.8,57.1,8.4,80-9.5c0,0,0.1,0,0.1-0.1c0.3-5,0.4-8.1,0.4-8.2
					c0-0.9,0.7-1.6,1.6-1.6c0.9,0,1.6,0.7,1.6,1.6C771.6,721.2,771.1,793.4,730.4,820.4z"/>
				<path class="st16" d="M618.5,745.5c0.8,5.1,1.9,10.6,3.4,16.4c0.1,0,0.2,0.1,0.2,0.1c21,14.5,47.4,3.9,70.4,1.8
					c22.6-2.1,45.7,0,67.4,6.4c4.7-14.9,6.7-29.7,7.6-39.6C722.9,762.2,664.7,718.6,618.5,745.5z"/>
				<path class="st5" d="M777.9,805.2c2.8,0,5.8-0.6,9-1.7c20-7.2,42.8-38.7,40.9-65.3c-0.5-6.9-2.5-11.7-6.2-14.7
					c-5.9-4.8-14.2-3.8-22.3-2.8c-9.3,1.2-15.2,1.5-17.3-3.3c-0.1-0.2-0.2-0.4-0.4-0.6c0.2-4.3,0.2-8.7,0.2-13.2
					c0.2-1-0.2-2-1.3-2.5c-0.1,0-0.1-0.1-0.2-0.1c-0.1,0-0.1-0.1-0.2-0.1c-54.6-26.5-121.6-26.9-176.1,0c-0.1,0-0.1,0.1-0.2,0.1
					c-0.1,0-0.1,0.1-0.2,0.1c-1.1,0.6-1.5,1.5-1.3,2.5c0,46.6,8.4,82,25.1,105.2c-23.8,3.2-49.9,9.3-49.9,20.9
					c0,18.1,68.6,24.7,114.7,24.7c46.1,0,114.7-6.6,114.7-24.7c0-11.5-26.2-17.7-49.9-20.9c2.3-3.1,4.4-6.5,6.3-10.1
					C767.2,803,772.2,805.2,777.9,805.2z M781.2,724.7c4.9,3.2,12.2,2.3,18.8,1.5c6.9-0.9,14.1-1.8,18.2,1.6c2.5,2,3.8,5.6,4.2,10.9
					c1.7,24-19.5,53.4-37.4,59.8c-8,2.9-14.4,1.2-19.3-4.9c0.9-1.8,1.7-3.7,2.5-5.6c2.9,2.9,6.4,4.4,10.3,4.4c1.9,0,4-0.4,6.1-1.1
					c13.8-4.9,29.5-26.9,28.3-45.6c-0.3-4.9-1.8-8.4-4.5-10.6c-4.4-3.6-10.6-2.8-16.2-2.1c-6.1,0.7-9.9,1-11.1-1.7
					c-0.1-0.2-0.2-0.4-0.3-0.5C781,728.7,781.1,726.7,781.2,724.7z M780.1,737.6c3.5,1.8,8.3,1.2,12.7,0.6c4.7-0.6,9.5-1.2,12.1,0.9
					c1.5,1.2,2.3,3.5,2.6,6.8c1.1,16.2-12.9,35.9-24.7,40.1c-5.1,1.8-9.1,0.6-12.1-3.7c-0.1-0.1-0.1-0.2-0.2-0.2
					C775.1,769.3,778.3,754.4,780.1,737.6z M774.6,704.4c-8,3.6-37.8,8-82.5,8c-44.7,0-74.6-4.4-82.5-8
					C660.8,680.2,723.3,680.6,774.6,704.4z M801.3,829.7c0,2.6-6.4,8.2-30.6,12.9c-21,4.1-48.9,6.4-78.6,6.4s-57.7-2.3-78.6-6.4
					c-24.2-4.7-30.6-10.3-30.6-12.9c0-3.4,10.2-11.1,48.4-15.9c1.5,1.8,3,3.4,4.4,4.8c-9.2,2.3-13.8,5.1-13.8,8.6
					c0,10.1,42,13.7,70.2,13.7c28.2,0,70.2-3.7,70.2-13.7c0-3.4-4.5-6.3-13.8-8.6c1.4-1.4,2.9-3,4.4-4.8
					C791.1,818.6,801.3,826.3,801.3,829.7z M638.5,821.3c8.5,7.4,15.2,9.2,15.7,9.3c0.6,0.1,13.9,3,37.9,3c24,0,37.3-2.8,38-3
					c0.4-0.1,7.1-1.9,15.6-9.3c10.5,2.4,13.4,4.9,13.4,5.9c0,3.7-23,10.5-67,10.5c-44,0-67-6.8-67-10.5
					C625.1,826.1,628,823.6,638.5,821.3z M752.4,805.7c-11.7,16.4-23.6,19.6-23.6,19.6c-0.1,0-13.4,2.8-36.7,2.8
					c-23.4,0-36.6-2.8-36.7-2.8c-0.5-0.1-46-12.7-47.6-115.9c4,1.7,10.9,3.5,22.4,5c16.6,2.2,38.5,3.4,61.9,3.4
					c23.4,0,45.4-1.2,61.9-3.4c11.5-1.5,18.4-3.2,22.4-5C775.5,762.3,763,790.9,752.4,805.7z"/>
				<path class="st5" d="M769.9,716.5c-0.9,0-1.6,0.7-1.6,1.6c0,0.1,0,3.2-0.4,8.2c0,0-0.1,0-0.1,0.1c-22.8,17.8-53.4,13.2-80,9.5
					c-23.4-3.3-48.5-5.7-70,6.2c-2-13.7-2.1-23.6-2.1-23.9c0-0.9-0.7-1.6-1.6-1.6c-0.9,0-1.6,0.7-1.6,1.6c0,3.1,0.5,75.2,41.2,102.2
					c0,0,0,0,0,0c0,0,0,0,0,0c0,0,0,0,0,0c0.1,0.1,0.2,0.1,0.3,0.2c0,0,0.1,0,0.1,0c0,0,0,0,0.1,0c0.2,0,16.7,3.6,37.7,3.8
					c20.9-0.2,37.5-3.8,37.7-3.8c0,0,0,0,0.1,0c0,0,0.1,0,0.1,0c0.1,0,0.2-0.1,0.3-0.2c0,0,0,0,0,0c0,0,0,0,0,0c0,0,0,0,0,0
					c40.7-27,41.2-99.2,41.2-102.2C771.6,717.3,770.8,716.5,769.9,716.5z M728.8,817.6c-2.3,0.5-17.6,3.5-36.7,3.7
					c-19.1-0.2-34.4-3.2-36.7-3.7c-17.1-11.4-26.8-31.7-32.3-51c19.3,11.3,42.3,4.1,63.1,1.3c24.3-3.2,49.3-1.3,72.8,5.5
					C753.2,790.4,743.9,807.5,728.8,817.6z M760,770.2c-21.8-6.4-44.9-8.5-67.4-6.4c-23,2.2-49.4,12.7-70.4-1.8
					c-0.1-0.1-0.2-0.1-0.2-0.1c-1.5-5.7-2.6-11.2-3.4-16.4c46.2-26.9,104.5,16.6,149.1-14.9C766.7,740.6,764.6,755.3,760,770.2z"/>
				<path class="st5" d="M785.3,793.2c-3.6,2.7-8.1,3-12,0.8c-1.2-0.7-2.3,1.2-1.1,1.9c4.5,2.6,10,2.3,14.2-0.8
					C787.5,794.2,786.4,792.4,785.3,793.2z"/>
				<path class="st5" d="M801.4,729.9c4.3-0.8,8.6-0.2,12.5,1.8c1.2,0.6,2.3-1.2,1.1-1.9c-4.5-2.3-9.3-3-14.2-2
					C799.5,728,800,730.1,801.4,729.9z"/>
				<path class="st5" d="M817.7,743.9c0,1.4,2.2,1.4,2.2,0c0-3.1-0.6-6.1-1.7-9c-0.5-1.3-2.6-0.7-2.1,0.6
					C817.1,738.2,817.7,741,817.7,743.9z"/>
				<path class="st5" d="M670.8,672.3c14.8-16.9,32.9-40.1,25.9-63.2c3.9,5.8,6.6,12.2,6.7,19.7c0.1,13.9-7.1,26.3-14,37.9
					c-1.1,1.8,1.8,3.5,2.8,1.6c7.4-12.6,15.3-26.3,14.3-41.5c-0.8-13.4-9.3-23.5-18.1-32.8c-3.2-4.3-6.4-8.5-8.1-13.7
					c-2.3-7.3-1.3-15.4,1.5-22.4c5.7-14.7,19-24.7,31.1-33.9c1.7-1.2,0-4.1-1.6-2.8c-18.8,14.2-44.8,36.8-32.8,63.5
					c1.6,3.6,3.9,6.7,6.2,9.8c0.1,0.3,0.2,0.5,0.4,0.8c0.3,0.3,0.6,0.6,0.8,0.9c1.6,2.1,3.1,4.2,4.4,6.5c4.3,7.6,5.1,16.5,3.6,25
					c-3.1,16.7-14.7,29.9-25.6,42.3C667.1,671.6,669.4,673.9,670.8,672.3z"/>
				<path class="st5" d="M676.1,544.4c0.2,0.1,0.3,0.1,0.5,0.1c0.4,0,0.8-0.2,1-0.6c0-0.1,4.7-8.7,14-15c0.5-0.3,0.6-1,0.3-1.5
					c-0.3-0.5-1-0.6-1.5-0.3c-9.7,6.6-14.5,15.4-14.7,15.8C675.4,543.5,675.6,544.1,676.1,544.4z"/>
				<path class="st5" d="M712,646.1c5.1-11.8,4.7-24.8-1.4-36.1c-0.7-1.2-2.5-0.1-1.9,1.1c5.7,10.6,6.2,22.9,1.4,33.9
					C709.5,646.2,711.4,647.3,712,646.1z"/>
			</g>
			<path class="st7" d="M786.9,826.2c-8.9-5-45.3-3.3-45.3-3.3l-3.7,4.1c-4.5,2.7-7.5,3.5-7.8,3.6c-0.6,0.1-14,3-38,3
				c-24,0-37.3-2.8-37.9-3c-0.4-0.1-7.2-1.9-15.7-9.3c-10.5,2.4-13.4,4.8-13.4,5.9c0,3.7,23,10.5,67,10.5c15.1,0,27.8-0.8,37.8-2
				C729.9,835.7,798.5,832.8,786.9,826.2z"/>
			<path class="st7" d="M778.7,724.5c0.2-0.6,0.4-1.2,0.7-1.7c0.6-0.8,1.7-1.2,2.7-1.3c2.1-0.2,4.2,0.5,5.7,1.9
				c0.4,3.6,0.8,7.3,1.2,10.9c0,0.4,0.1,0.9-0.1,1.2c-0.2,0.3-0.6,0.5-0.9,0.6c-2.9,0.9-6.2-0.5-8-3
				C778.3,730.7,778,727.4,778.7,724.5z"/>
			<path class="st7" d="M804.1,779.7c4.6-4.4,9.1-8.8,13.7-13.3c-2.4,10.5-8.7,20.1-17.4,26.5c-2.5,1.9-5.3,3.5-8,5.1
				c-3,1.8-6,3.5-9.4,4.4c-3.6,0.9-7.4,0.6-11-0.4c-2.7-0.8-5.3-2.2-7.1-4.3c-1.8-2.1-2.8-5.1-2.1-7.8c0.3-1.2,1-2.3,2-2.9
				c1.4-0.8,3.1-0.6,4.7-0.3c5.9,1.3,11.7,4.2,17.7,3.5C793.9,789.3,799.3,784.4,804.1,779.7z"/>
			<path class="st11" d="M655.4,817.6c0,0,84.6-10.3,110.8-78.4c0,0,1.6-0.2,0,8.8c-1.6,9-9.9,49.6-37,71.2
				C729.3,819.2,686.5,828.8,655.4,817.6z"/>
			<path class="st11" d="M663.7,711.8c0,0,99.4-3.7,88.2-18.2c0,0,24.7,7.6,26.5,11.6C778.3,705.2,734.8,722,663.7,711.8z"/>
		</g>
	</g>
</g>
</svg>
